<?xml version="1.0" encoding="utf-8"?> <!-- Generator: IcoMoon.io --> <!DOCTYPE svg PUBLIC "-//W3C//DTD SVG 1.1//EN" "http://www.w3.org/Graphics/SVG/1.1/DTD/svg11.dtd"> <svg width="20" height="20" viewBox="0 0 20 20" xmlns="http://www.w3.org/2000/svg" xmlns:xlink="http://www.w3.org/1999/xlink" fill="#141414"><g><path d="M 18.707,7.5l-1.098,0 l-0.023,0 c-0.687,0-1.289-0.581-1.336-1.25l0,0C 16.25,2.682, 13.374,0, 9.781,0l-3.278,0 C 2.914,0, 0.003,2.891,0,6.458l0,7.086 C0,17.112, 2.914,20, 6.504,20l 7,0 C 17.097,20, 20,17.112, 20,13.544L 20,8.966 C 20,8.254, 19.425,7.5, 18.707,7.5z M 6.25,5l 3.75,0 c 0.688,0, 1.25,0.563, 1.25,1.25s-0.563,1.25-1.25,1.25l-3.75,0 c-0.688,0-1.25-0.563-1.25-1.25S 5.563,5, 6.25,5 z M 13.75,15L 6.25,15 c-0.688,0-1.25-0.563-1.25-1.25s 0.563-1.25, 1.25-1.25l 7.5,0 c 0.688,0, 1.25,0.563, 1.25,1.25S 14.438,15, 13.75,15z"></path></g></svg>