<?xml version="1.0" encoding="utf-8"?> <!-- Generator: IcoMoon.io --> <!DOCTYPE svg PUBLIC "-//W3C//DTD SVG 1.1//EN" "http://www.w3.org/Graphics/SVG/1.1/DTD/svg11.dtd"> <svg width="20" height="20" viewBox="0 0 20 20" xmlns="http://www.w3.org/2000/svg" xmlns:xlink="http://www.w3.org/1999/xlink" fill="#141414"><g><path d="M 16.667,0L 3.333,0 C 1.492,0,0,1.493,0,3.334l0,13.333 C0,18.508, 1.492,20, 3.333,20l 13.334,0 c 1.841,0, 3.333-1.492, 3.333-3.334L 20,3.334C 20,1.493, 18.508,0, 16.667,0z M 17.5,12.658 C 17.5,15.334, 15.323,17.5, 12.628,17.5L 7.378,17.5 C 4.685,17.5, 2.5,15.334, 2.5,12.658L 2.5,7.344 c 0.002-2.676, 2.185-4.844, 4.878-4.844l 2.458,0 C 12.53,2.5, 14.688,4.512, 14.688,7.188c 0.035,0.502, 0.487,0.938, 1.002,0.938l 0.018,0 l 0.823,0 C 17.069,8.125, 17.5,8.69, 17.5,9.225L 17.5,12.658 zM 13.75,12.5c0,0.688-0.563,1.25-1.25,1.25L 7.5,13.75 c-0.688,0-1.25-0.563-1.25-1.25l0,0c0-0.688, 0.563-1.25, 1.25-1.25l 5,0 C 13.188,11.25, 13.75,11.813, 13.75,12.5 L 13.75,12.5zM 11.25,7.5c0,0.688-0.563,1.25-1.25,1.25l-2.5,0 c-0.688,0-1.25-0.563-1.25-1.25l0,0c0-0.688, 0.563-1.25, 1.25-1.25l 2.5,0 C 10.688,6.25, 11.25,6.813, 11.25,7.5L 11.25,7.5 z"></path></g></svg>