<?xml version="1.0" encoding="utf-8"?> <!-- Generator: IcoMoon.io --> <!DOCTYPE svg PUBLIC "-//W3C//DTD SVG 1.1//EN" "http://www.w3.org/Graphics/SVG/1.1/DTD/svg11.dtd"> <svg width="20" height="20" viewBox="0 0 20 20" xmlns="http://www.w3.org/2000/svg" xmlns:xlink="http://www.w3.org/1999/xlink" fill="#141414"><g><path d="M 16.668,0L 3.334,0 C 1.5,0,0,1.5,0,3.334l0,13.332 C0,18.501, 1.5,20, 3.334,20l 13.334,0 C 18.501,20, 20,18.501, 20,16.666L 20,3.334 C 20,1.5, 18.501,0, 16.668,0z M 18.75,16.666c0,0.553-0.218,1.076-0.613,1.471 C 17.742,18.532, 17.22,18.75, 16.668,18.75L 10,18.75 L 10,10 L 1.25,10 L 1.25,3.334 c0-0.553, 0.218-1.075, 0.613-1.471C 2.259,1.468, 2.781,1.25, 3.334,1.25 L 10,1.25 l0,8.75 l 8.75,0 L 18.75,16.666 z"></path></g></svg>