<?xml version="1.0" encoding="utf-8"?> <!-- Generator: IcoMoon.io --> <!DOCTYPE svg PUBLIC "-//W3C//DTD SVG 1.1//EN" "http://www.w3.org/Graphics/SVG/1.1/DTD/svg11.dtd"> <svg width="20" height="20" viewBox="0 0 20 20" xmlns="http://www.w3.org/2000/svg" xmlns:xlink="http://www.w3.org/1999/xlink" fill="#141414"><g><path d="M 16.641,0L 3.359,0 C 1.512,0,0,1.512,0,3.359l0,13.281 c0,1.848, 1.512,3.359, 3.359,3.359l 13.281,0 c 1.848,0, 3.359-1.512, 3.359-3.359L 20,3.359 C 20,1.512, 18.488,0, 16.641,0z M 18.75,15L 11.25,15 L 11.25,10.391 c0,0, 1.374,0.020, 2.109,0.781l0,1.328 l 3.016,0 c-0.231-0.74-0.724-1.467-1.428-2.083C 13.736,9.358, 11.76,8.828, 10,8.828l0,6.172 L 1.25,15 l0-1.875 c0-0.848, 0.286-1.69, 0.827-2.437c 0.48-0.662, 1.15-1.247, 1.989-1.737c 0.985-0.575, 2.159-0.99, 3.433-1.226L 7.5,5 l 2.5,0 l0,2.5 c 2.871,0, 4.328,0.516, 5.933,1.452c 0.84,0.49, 1.509,1.074, 1.989,1.737C 18.464,11.435, 18.75,12.277, 18.75,13.125L 18.75,15 zM 3.898,12.5 C 4.129,11.76 4.622,11.033 5.327,10.417 C 5.943,9.878 6.686,9.456 7.5,9.171 L 7.5,12.5 L 3.898,12.5 Z"></path></g></svg>