<?xml version="1.0" encoding="utf-8"?> <!-- Generator: IcoMoon.io --> <!DOCTYPE svg PUBLIC "-//W3C//DTD SVG 1.1//EN" "http://www.w3.org/Graphics/SVG/1.1/DTD/svg11.dtd"> <svg width="20.347070693969727" height="20" viewBox="0 0 20.347070693969727 20" xmlns="http://www.w3.org/2000/svg" xmlns:xlink="http://www.w3.org/1999/xlink" fill="#141414"><g><path d="M 10.974,7.949c-0.763-0.045-1.642,0.001-2.661,0.175l 2.35,4.236L 20,9.796 c-0.101-0.239-0.248-0.473-0.443-0.699c-0.966-1.119-3.061-2.117-5.344-2.567l 0-0.001 c-2.239-0.525-4.664-0.503-7.148-0.128c-0.090,0.013-0.179,0.028-0.267,0.043l-0.826-1.529 c-0.804,0.107-1.559,0.274-2.258,0.498l 0.786,1.644c-1.284,0.498-2.338,1.206-3.099,2.059 C 0.149,10.544-0.347,12.338, 0.255,14.085c 0.121,0.352, 0.285,0.687, 0.487,1l 9.337-2.564l-2.593-4.802 c 0.089-0.017, 0.18-0.035, 0.272-0.051c 4.193-0.748, 6.486,0.408, 7.742,1.637l-3.194,0.774L 10.974,7.949z M 3.413,12.234 c-0.288-1.315-0.059-2.784, 1.766-3.762l 1.428,2.987L 3.413,12.234z"></path></g></svg>