<?xml version="1.0" encoding="utf-8"?> <!-- Generator: IcoMoon.io --> <!DOCTYPE svg PUBLIC "-//W3C//DTD SVG 1.1//EN" "http://www.w3.org/Graphics/SVG/1.1/DTD/svg11.dtd"> <svg width="20" height="20" viewBox="0 0 20 20" xmlns="http://www.w3.org/2000/svg" xmlns:xlink="http://www.w3.org/1999/xlink" fill="#141414"><g><path d="M 14.954,4.421 C 14.82,4.612 13.695,6.125 11.037,7.121 C 9.813,4.87 8.455,3.022 8.249,2.745 C 8.811,2.61 9.397,2.538 10,2.538 C 11.899,2.538 13.635,3.25 14.954,4.421 ZM 10.522,10.077 C 6.668,11.323 4.617,14.719 4.447,15.009 C 3.254,13.684 2.526,11.931 2.526,10.011 C 2.526,9.935 2.528,9.859 2.53,9.783 C 2.857,9.79 6.479,9.836 10.211,8.719 C 10.425,9.138 10.629,9.563 10.817,9.988 C 10.718,10.016 10.62,10.045 10.522,10.077 ZM 10,0C 4.477,0,0,4.477,0,10s 4.477,10, 10,10s 10-4.477, 10-10S 15.523,0, 10,0z M 10,18.75 C 5.175,18.75, 1.25,14.825, 1.25,10C 1.25,5.175, 5.175,1.25, 10,1.25C 14.825,1.25, 18.75,5.175, 18.75,10 C 18.75,14.825, 14.825,18.75, 10,18.75zM 12.108,9.314 C 11.953,8.95 11.786,8.588 11.612,8.232 C 14.375,7.104 15.628,5.498 15.785,5.285 C 16.826,6.557 17.456,8.177 17.473,9.941 C 17.227,9.889 14.756,9.387 12.269,9.7 C 12.216,9.572 12.163,9.444 12.108,9.314 ZM 9.594,7.57 C 6.098,8.498 3.018,8.485 2.684,8.481 C 3.169,6.161 4.732,4.234 6.823,3.248 C 7.020,3.518 8.355,5.369 9.594,7.57 ZM 11.276,11.24 C 11.292,11.235 11.309,11.229 11.325,11.224 C 12.374,13.95 12.808,16.236 12.919,16.891 C 12.022,17.273 11.035,17.485 10,17.485 C 8.272,17.485 6.68,16.896 5.412,15.908 C 5.547,15.633 7.060,12.709 11.276,11.24 ZM 12.724,10.878 C 15.066,10.503 17.124,11.117 17.379,11.198 C 17.046,13.277 15.853,15.073 14.176,16.207 C 14.099,15.752 13.701,13.564 12.724,10.878 Z"></path></g></svg>