<?xml version="1.0" encoding="utf-8"?> <!-- Generator: IcoMoon.io --> <!DOCTYPE svg PUBLIC "-//W3C//DTD SVG 1.1//EN" "http://www.w3.org/Graphics/SVG/1.1/DTD/svg11.dtd"> <svg width="20" height="20" viewBox="0 0 20 20" xmlns="http://www.w3.org/2000/svg" xmlns:xlink="http://www.w3.org/1999/xlink" fill="#141414"><g><path d="M 10,20C 4.486,20,0,15.514,0,10S 4.486,0, 10,0 C 15.514,0, 20,4.486, 20,10S 15.514,20, 10,20z M 18.434,11.369c-0.292-0.092-2.644-0.794-5.321-0.365 c 1.117,3.070, 1.572,5.57, 1.659,6.090C 16.689,15.798, 18.053,13.746, 18.434,11.369z M 13.337,17.876 c-0.127-0.749-0.623-3.361-1.822-6.477c-0.019,0.006-0.038,0.013-0.056,0.019c-4.818,1.679-6.547,5.020-6.701,5.334 c 1.448,1.129, 3.268,1.803, 5.243,1.803C 11.183,18.555, 12.311,18.313, 13.337,17.876z M 3.654,15.724 c 0.194-0.331, 2.538-4.213, 6.943-5.637c 0.111-0.036, 0.224-0.070, 0.337-0.102c-0.214-0.485-0.448-0.971-0.693-1.45 c-4.266,1.277-8.405,1.223-8.779,1.216c-0.003,0.087-0.004,0.174-0.004,0.261C 1.458,12.207, 2.29,14.21, 3.654,15.724z M 1.639,8.264c 0.382,0.005, 3.901,0.020, 7.897-1.041c-1.415-2.516-2.942-4.631-3.167-4.94 C 3.979,3.41, 2.193,5.613, 1.639,8.264z M 7.998,1.709c 0.236,0.316, 1.787,2.429, 3.187,5 c 3.037-1.138, 4.323-2.867, 4.477-3.085c-1.508-1.338-3.492-2.152-5.662-2.152C 9.311,1.471, 8.641,1.554, 7.998,1.709z M 16.612,4.612c-0.18,0.244-1.611,2.078-4.77,3.368c 0.199,0.407, 0.389,0.821, 0.567,1.237 c 0.063,0.148, 0.124,0.295, 0.184,0.441c 2.842-0.357, 5.666,0.215, 5.948,0.275C 18.522,7.916, 17.801,6.065, 16.612,4.612z"></path></g></svg>