<?xml version="1.0" encoding="utf-8"?> <!-- Generator: IcoMoon.io --> <!DOCTYPE svg PUBLIC "-//W3C//DTD SVG 1.1//EN" "http://www.w3.org/Graphics/SVG/1.1/DTD/svg11.dtd"> <svg width="20" height="20" viewBox="0 0 20 20" xmlns="http://www.w3.org/2000/svg" xmlns:xlink="http://www.w3.org/1999/xlink" fill="#141414"><g><path d="M 10,0 C 15.523,0 20,4.477 20,10 C 20,15.099 16.183,19.307 11.25,19.922 L 11.25,12.5 L 14.688,12.5 L 15,10 L 11.25,10 L 11.25,8.75 C 11.25,8.060 11.81,7.5 12.5,7.5 L 15,7.5 L 15,5 L 12.5,5 C 10.429,5 8.75,6.679 8.75,8.75 L 8.75,10 L 6.875,10 L 6.875,12.5 L 8.75,12.5 L 8.75,17.441 L 8.75,19.685 L 8.75,19.922 C 3.817,19.307 0,15.099 0,10 C 0,4.477 4.477,0 10,0 Z"></path></g></svg>