<?xml version="1.0" encoding="utf-8"?> <!-- Generator: IcoMoon.io --> <!DOCTYPE svg PUBLIC "-//W3C//DTD SVG 1.1//EN" "http://www.w3.org/Graphics/SVG/1.1/DTD/svg11.dtd"> <svg width="20" height="20" viewBox="0 0 20 20" xmlns="http://www.w3.org/2000/svg" xmlns:xlink="http://www.w3.org/1999/xlink" fill="#141414"><g><path d="M 16.667,0L 3.334,0 C 1.5,0,0,1.5,0,3.334l0,13.333 C0,18.501, 1.5,20, 3.334,20l 13.333-0 c 1.834,0, 3.333-1.499, 3.333-3.334L 20,3.334 C 20,1.5, 18.5,0, 16.667,0z M 17.004,10L 13.75,10 l0,8.75 l-3.75,0 L 10,10 l-1.807,0 l0-2.863 L 10,7.137 l0-1.859 C 10,2.752, 11.090,1.25, 14.060,1.25l 3.423,0 l0,3.097 l-2.796,0 c-0.83-0.001-0.933,0.433-0.933,1.24L 13.75,7.137l 3.75,0 L 17.004,10z"></path></g></svg>