<?xml version="1.0" encoding="utf-8"?> <!-- Generator: IcoMoon.io --> <!DOCTYPE svg PUBLIC "-//W3C//DTD SVG 1.1//EN" "http://www.w3.org/Graphics/SVG/1.1/DTD/svg11.dtd"> <svg width="20" height="20" viewBox="0 0 20 20" xmlns="http://www.w3.org/2000/svg" xmlns:xlink="http://www.w3.org/1999/xlink" fill="#141414"><g><path d="M 7.179,0C 2.426,0,0,2.738,0,7.849l0,0l0,3.57 l0,7.153 l 4.656-4.661L 4.656,8.464 c0-2.117, 0.561-3.465, 2.444-3.767 l0,0c 0.658-0.129, 2.026-0.084, 2.897-0.084l0,0l0,3.234 c0,0.029, 0.004,0.082, 0.012,0.109l0,0c 0.037,0.131, 0.155,0.227, 0.295,0.227 l0,0c 0.079,0, 0.154-0.041, 0.23-0.117l0,0L 18.602,0.001L 13.186,0L 7.179,0 z M 15.344,6.089l0,5.447 c0,2.117-0.561,3.465-2.444,3.767l0,0c-0.658,0.129-2.026,0.084-2.897,0.084l0,0l0-3.234 c0-0.029-0.004-0.082-0.012-0.109 l0,0c-0.036-0.131-0.155-0.227-0.295-0.227l0,0c-0.079-0-0.154,0.041-0.23,0.117l0,0L 1.398,19.999L 6.814,20l 6.007,0 C 17.574,20, 20,17.262, 20,12.151l0,0l0-3.571 L 20,1.428 L 15.344,6.089z"></path></g></svg>