<?xml version="1.0" encoding="utf-8"?> <!-- Generator: IcoMoon.io --> <!DOCTYPE svg PUBLIC "-//W3C//DTD SVG 1.1//EN" "http://www.w3.org/Graphics/SVG/1.1/DTD/svg11.dtd"> <svg width="20" height="20" viewBox="0 0 20 20" xmlns="http://www.w3.org/2000/svg" xmlns:xlink="http://www.w3.org/1999/xlink" fill="#141414"><g><path d="M 16.668,0L 3.334,0 C 1.5,0,0,1.5,0,3.334l0,13.333 C0,18.501, 1.5,20, 3.334,20l 13.334,0 C 18.501,20, 20,18.501, 20,16.666L 20,3.334 C 20,1.5, 18.501,0, 16.668,0z M 5.625,13.125c-1.726,0-3.125-1.399-3.125-3.125 c0-1.726, 1.399-3.125, 3.125-3.125s 3.125,1.399, 3.125,3.125C 8.75,11.726, 7.351,13.125, 5.625,13.125z M 14.375,13.125c-1.726,0-3.125-1.399-3.125-3.125 c0-1.726, 1.399-3.125, 3.125-3.125s 3.125,1.399, 3.125,3.125C 17.5,11.726, 16.101,13.125, 14.375,13.125z"></path></g></svg>