<?xml version="1.0" encoding="utf-8"?> <!-- Generator: IcoMoon.io --> <!DOCTYPE svg PUBLIC "-//W3C//DTD SVG 1.1//EN" "http://www.w3.org/Graphics/SVG/1.1/DTD/svg11.dtd"> <svg width="20" height="20" viewBox="0 0 20 20" xmlns="http://www.w3.org/2000/svg" xmlns:xlink="http://www.w3.org/1999/xlink" fill="#141414"><g><path d="M 15.625,8.125 C 14.246,8.125 13.125,9.246 13.125,10.625 C 13.125,12.004 14.246,13.125 15.625,13.125 C 17.004,13.125 18.125,12.004 18.125,10.625 C 18.125,9.246 17.004,8.125 15.625,8.125 Z M 15.625,6.25 L 15.625,6.25 C 18.041,6.25 20,8.209 20,10.625 C 20,13.041 18.041,15 15.625,15 C 13.209,15 11.25,13.041 11.25,10.625 C 11.25,8.209 13.209,6.25 15.625,6.25 ZM0,10.625A4.375,4.375 1080 1 0 8.75,10.625A4.375,4.375 1080 1 0 0,10.625z"></path></g></svg>