<?xml version="1.0" encoding="utf-8"?> <!-- Generator: IcoMoon.io --> <!DOCTYPE svg PUBLIC "-//W3C//DTD SVG 1.1//EN" "http://www.w3.org/Graphics/SVG/1.1/DTD/svg11.dtd"> <svg width="20" height="20.13671875" viewBox="0 0 20 20.13671875" xmlns="http://www.w3.org/2000/svg" xmlns:xlink="http://www.w3.org/1999/xlink" fill="#141414"><g><path d="M 10,0C 4.477,0,0,4.508,0,10.068S 4.477,20.137, 10,20.137s 10-4.508, 10-10.068S 15.523,0, 10,0z M 5.625,13.125 c-1.726,0-3.125-1.399-3.125-3.125c0-1.726, 1.399-3.125, 3.125-3.125s 3.125,1.399, 3.125,3.125C 8.75,11.726, 7.351,13.125, 5.625,13.125z M 14.375,13.125 c-1.726,0-3.125-1.399-3.125-3.125c0-1.726, 1.399-3.125, 3.125-3.125s 3.125,1.399, 3.125,3.125C 17.5,11.726, 16.101,13.125, 14.375,13.125z"></path></g></svg>