<?xml version="1.0" encoding="utf-8"?> <!-- Generator: IcoMoon.io --> <!DOCTYPE svg PUBLIC "-//W3C//DTD SVG 1.1//EN" "http://www.w3.org/Graphics/SVG/1.1/DTD/svg11.dtd"> <svg width="20" height="20" viewBox="0 0 20 20" xmlns="http://www.w3.org/2000/svg" xmlns:xlink="http://www.w3.org/1999/xlink" fill="#141414"><g><path d="M 8.75,11.25L 11.25,11.25L 11.25,16.25L 8.75,16.25zM 16.641,0L 3.359,0 C 1.512,0,0,1.512,0,3.359l0,13.281 c0,1.848, 1.512,3.359, 3.359,3.359l 13.281,0 c 1.848,0, 3.359-1.512, 3.359-3.359L 20,3.359 C 20,1.512, 18.488,0, 16.641,0z M 11.25,16.25l0,2.5 l-2.5,0 l0-2.5 L 3.75,16.25 L 10,2.5l 6.25,13.75L 11.25,16.25 z"></path></g></svg>