<?xml version="1.0" encoding="utf-8"?> <!-- Generator: IcoMoon.io --> <!DOCTYPE svg PUBLIC "-//W3C//DTD SVG 1.1//EN" "http://www.w3.org/Graphics/SVG/1.1/DTD/svg11.dtd"> <svg width="20" height="20" viewBox="0 0 20 20" xmlns="http://www.w3.org/2000/svg" xmlns:xlink="http://www.w3.org/1999/xlink" fill="#141414"><g><path d="M 19.994,0l-2.209,0 L 12.949,6.639l-1.915-1.915c-0.27-0.27-0.628-0.418-1.010-0.418 c-0.381,0-0.74,0.148-1.010,0.418l-0.869,0.869c-0.049-0.066-0.099-0.132-0.154-0.196 c-1.185-1.384-3.267-1.547-4.651-0.362c-1.384,1.184-1.547,3.267-0.362,4.651c 0.272,0.318, 0.591,0.57, 0.938,0.758 c 0.007,0.356, 0.146,0.71, 0.417,0.982L 9.014,16.107c 0.27,0.27, 0.629,0.419, 1.010,0.419c 0.382,0, 0.74-0.149, 1.010-0.419 l 4.682-4.681c 0.27-0.27, 0.419-0.629, 0.419-1.010s-0.149-0.74-0.419-1.010l-0.539-0.539l 4.816-4.064L 19.994,0 z M 9.677,5.387c 0.093-0.093, 0.216-0.144, 0.347-0.144c 0.131,0, 0.254,0.051, 0.347,0.144l 2.019,2.019l-2.195,3.013 c-0.217,0.242-0.408,0.115-0.483,0.025c-0.026-0.030-0.541-0.705-1.207-1.578c 0.331-0.757, 0.366-1.618, 0.095-2.403 L 9.677,5.387z M 15.053,10.068c 0.093,0.093, 0.144,0.216, 0.144,0.347s-0.051,0.254-0.144,0.347L 10.371,15.444 c-0.093,0.093-0.216,0.144-0.347,0.144c-0.131,0-0.254-0.051-0.347-0.144l-4.634-4.634c 0.539,0.073, 1.095,0.012, 1.614-0.185 l 3.109,2.5c0,0, 0.17,0.158, 0.358,0.005l 4.334-3.657L 15.053,10.068z"></path></g></svg>