<?xml version="1.0" encoding="utf-8"?> <!-- Generator: IcoMoon.io --> <!DOCTYPE svg PUBLIC "-//W3C//DTD SVG 1.1//EN" "http://www.w3.org/Graphics/SVG/1.1/DTD/svg11.dtd"> <svg width="20" height="20" viewBox="0 0 20 20" xmlns="http://www.w3.org/2000/svg" xmlns:xlink="http://www.w3.org/1999/xlink" fill="#141414"><g><path d="M 16.667,0L 3.334,0 C 1.5,0,0,1.5,0,3.334l0,13.332 C0,18.501, 1.5,20, 3.334,20l 13.333,0 C 18.5,20, 20,18.501, 20,16.666L 20,3.334 C 20,1.5, 18.5,0, 16.667,0z M 18.358,18.358 C 17.904,18.812, 17.303,19.063, 16.667,19.063L 3.334,19.063 c-0.636,0-1.237-0.25-1.692-0.704C 1.188,17.904, 0.938,17.303, 0.938,16.666 L 0.938,3.334 c0-0.636, 0.25-1.237, 0.705-1.692C 2.097,1.188, 2.697,0.938, 3.334,0.938l 13.333,0 c 0.139,0, 0.275,0.013, 0.409,0.036 l-4.127,5.665l-1.915-1.915c-0.27-0.27-0.628-0.418-1.010-0.418c-0.381,0-0.74,0.148-1.010,0.418l-0.869,0.869 c-0.049-0.066-0.099-0.132-0.154-0.196c-1.185-1.384-3.267-1.547-4.651-0.362c-1.384,1.184-1.547,3.267-0.362,4.651 c 0.272,0.318, 0.591,0.57, 0.938,0.758c 0.007,0.356, 0.146,0.71, 0.417,0.982L 9.014,16.107 c 0.27,0.27, 0.629,0.419, 1.010,0.419c 0.382,0, 0.74-0.149, 1.010-0.419l 4.682-4.681c 0.27-0.27, 0.419-0.629, 0.419-1.010 s-0.149-0.74-0.419-1.010l-0.539-0.539L 19.063,5.45l0,11.216 C 19.063,17.303, 18.812,17.904, 18.358,18.358z M 8.601,6.462 l 1.076-1.076c 0.093-0.093, 0.216-0.144, 0.347-0.144c 0.131,0, 0.254,0.051, 0.347,0.144l 2.019,2.019l-2.195,3.013 c-0.217,0.242-0.408,0.115-0.483,0.025c-0.026-0.030-0.541-0.705-1.207-1.578 C 8.837,8.108, 8.873,7.248, 8.601,6.462z M 9.766,13.126c0,0, 0.17,0.158, 0.358,0.005l 4.334-3.657l 0.595,0.595 c 0.093,0.093, 0.144,0.216, 0.144,0.347s-0.051,0.254-0.144,0.347L 10.371,15.444c-0.093,0.093-0.216,0.144-0.347,0.144 c-0.131,0-0.254-0.051-0.347-0.144l-4.634-4.634c 0.539,0.073, 1.095,0.012, 1.614-0.185L 9.766,13.126z"></path></g></svg>