<?xml version="1.0" encoding="utf-8"?> <!-- Generator: IcoMoon.io --> <!DOCTYPE svg PUBLIC "-//W3C//DTD SVG 1.1//EN" "http://www.w3.org/Graphics/SVG/1.1/DTD/svg11.dtd"> <svg width="20" height="20" viewBox="0 0 20 20" xmlns="http://www.w3.org/2000/svg" xmlns:xlink="http://www.w3.org/1999/xlink" fill="#141414"><g><path d="M 0,10.867 C 0,11.774 0.085,12.594 0.254,13.327 C 0.424,14.061 0.659,14.698 0.958,15.239 C 1.258,15.78 1.64,16.256 2.103,16.667 C 2.566,17.078 3.068,17.413 3.609,17.674 C 4.15,17.935 4.768,18.147 5.462,18.31 C 6.156,18.473 6.866,18.587 7.589,18.652 C 8.313,18.717 9.108,18.75 9.976,18.75 C 10.849,18.75 11.648,18.717 12.372,18.652 C 13.095,18.587 13.806,18.473 14.504,18.31 C 15.201,18.147 15.822,17.935 16.367,17.674 C 16.911,17.413 17.416,17.078 17.883,16.667 C 18.349,16.256 18.734,15.78 19.037,15.239 C 19.34,14.698 19.576,14.061 19.746,13.327 C 19.915,12.594 20,11.774 20,10.867 C 20,9.25 19.459,7.852 18.377,6.672 C 18.435,6.515 18.489,6.338 18.538,6.139 C 18.587,5.94 18.633,5.656 18.675,5.288 C 18.717,4.919 18.701,4.494 18.626,4.012 C 18.551,3.529 18.412,3.037 18.21,2.535 L 18.064,2.505 C 17.959,2.486 17.788,2.491 17.55,2.52 C 17.312,2.549 17.035,2.608 16.719,2.696 C 16.403,2.784 15.995,2.954 15.496,3.205 C 14.998,3.456 14.471,3.77 13.917,4.149 C 12.965,3.888 11.658,3.757 9.995,3.757 C 8.339,3.757 7.035,3.888 6.083,4.149 C 5.529,3.77 4.999,3.456 4.494,3.205 C 3.989,2.954 3.586,2.784 3.286,2.696 C 2.986,2.608 2.706,2.551 2.445,2.525 C 2.184,2.499 2.020,2.491 1.951,2.501 C 1.883,2.51 1.829,2.522 1.79,2.535 C 1.588,3.037 1.449,3.529 1.374,4.012 C 1.299,4.494 1.283,4.92 1.325,5.288 C 1.368,5.656 1.413,5.94 1.462,6.139 C 1.511,6.338 1.565,6.515 1.623,6.672 C 0.541,7.852 0,9.25 0,10.867 Z M 2.455,13.322 C 2.455,12.383 2.882,11.523 3.736,10.74 C 3.99,10.505 4.287,10.328 4.626,10.207 C 4.965,10.087 5.348,10.018 5.775,10.002 C 6.202,9.986 6.611,9.989 7.002,10.012 C 7.394,10.034 7.876,10.065 8.45,10.104 C 9.024,10.144 9.519,10.163 9.936,10.163 C 10.354,10.163 10.849,10.144 11.423,10.104 C 11.997,10.065 12.479,10.034 12.87,10.012 C 13.262,9.989 13.671,9.986 14.098,10.002 C 14.525,10.018 14.908,10.087 15.247,10.207 C 15.586,10.328 15.883,10.505 16.137,10.74 C 16.991,11.51 17.418,12.37 17.418,13.322 C 17.418,13.883 17.348,14.38 17.208,14.814 C 17.068,15.247 16.888,15.611 16.67,15.904 C 16.451,16.197 16.148,16.447 15.76,16.652 C 15.372,16.858 14.994,17.016 14.626,17.127 C 14.258,17.237 13.785,17.324 13.208,17.386 C 12.631,17.448 12.116,17.485 11.662,17.498 C 11.209,17.511 10.634,17.518 9.936,17.518 C 9.239,17.518 8.663,17.511 8.21,17.498 C 7.757,17.485 7.242,17.448 6.665,17.386 C 6.088,17.324 5.615,17.237 5.247,17.127 C 4.879,17.016 4.5,16.858 4.112,16.652 C 3.725,16.447 3.421,16.198 3.203,15.904 C 2.985,15.611 2.805,15.247 2.665,14.814 C 2.525,14.38 2.455,13.883 2.455,13.322 ZM 12.5,13.125A1.25,1.875 2520 1 0 15,13.125A1.25,1.875 2520 1 0 12.5,13.125zM 5,13.125A1.25,1.875 2520 1 0 7.5,13.125A1.25,1.875 2520 1 0 5,13.125z"></path></g></svg>