<?xml version="1.0" encoding="utf-8"?> <!-- Generator: IcoMoon.io --> <!DOCTYPE svg PUBLIC "-//W3C//DTD SVG 1.1//EN" "http://www.w3.org/Graphics/SVG/1.1/DTD/svg11.dtd"> <svg width="20" height="20" viewBox="0 0 20 20" xmlns="http://www.w3.org/2000/svg" xmlns:xlink="http://www.w3.org/1999/xlink" fill="#141414"><g><path d="M 10,16.248c-0.374,0-0.748-0.194-1.136-0.581c-0.153-0.153-0.153-0.4,0-0.552c 0.153-0.152, 0.4-0.152, 0.552,0 C 9.655,15.353, 9.846,15.469, 10,15.469c 0.154,0, 0.345-0.116, 0.583-0.354c 0.153-0.152, 0.4-0.152, 0.552,0 c 0.153,0.153, 0.153,0.4,0,0.552C 10.748,16.054, 10.374,16.248, 10,16.248zM 0,10.264 C 0,11.238 0.083,12.121 0.25,12.914 C 0.417,13.706 0.651,14.393 0.953,14.975 C 1.255,15.557 1.637,16.067 2.099,16.505 C 2.561,16.943 3.062,17.304 3.604,17.588 C 4.146,17.872 4.766,18.102 5.464,18.277 C 6.161,18.452 6.871,18.575 7.594,18.645 C 8.316,18.715 9.111,18.75 9.979,18.75 C 10.847,18.75 11.644,18.715 12.37,18.645 C 13.095,18.575 13.807,18.452 14.505,18.277 C 15.203,18.102 15.825,17.872 16.37,17.588 C 16.915,17.304 17.42,16.943 17.885,16.505 C 18.351,16.067 18.734,15.557 19.036,14.975 C 19.339,14.393 19.575,13.706 19.745,12.914 C 19.915,12.121 20,11.238 20,10.264 C 20,8.518 19.458,7.014 18.375,5.752 C 18.437,5.584 18.491,5.391 18.536,5.174 C 18.581,4.957 18.625,4.65 18.667,4.254 C 18.708,3.858 18.693,3.4 18.62,2.881 C 18.547,2.363 18.41,1.833 18.208,1.293 L 18.052,1.262 C 17.948,1.241 17.778,1.248 17.542,1.283 C 17.306,1.318 17.029,1.381 16.714,1.472 C 16.398,1.563 15.99,1.744 15.49,2.014 C 14.99,2.284 14.462,2.625 13.906,3.039 C 12.962,2.752 11.66,2.451 10,2.451 C 8.34,2.451 7.035,2.752 6.083,3.039 C 5.528,2.625 4.998,2.285 4.495,2.019 C 3.991,1.752 3.589,1.57 3.286,1.472 C 2.984,1.374 2.705,1.311 2.448,1.283 C 2.191,1.255 2.026,1.246 1.953,1.257 C 1.88,1.267 1.826,1.279 1.792,1.293 C 1.59,1.833 1.451,2.362 1.375,2.881 C 1.299,3.4 1.281,3.856 1.323,4.248 C 1.365,4.641 1.41,4.949 1.458,5.174 C 1.507,5.398 1.563,5.591 1.625,5.752 C 0.542,7.007 0,8.511 0,10.264 Z M 2.667,12.488 C 2.667,11.355 3.083,10.327 3.917,9.405 C 4.167,9.124 4.457,8.911 4.787,8.766 C 5.116,8.622 5.491,8.54 5.912,8.52 C 6.332,8.501 6.733,8.504 7.115,8.532 C 7.497,8.559 7.969,8.596 8.531,8.643 C 9.094,8.69 9.58,8.714 9.99,8.714 C 10.399,8.714 10.886,8.69 11.448,8.643 C 12.011,8.596 12.483,8.559 12.865,8.532 C 13.247,8.504 13.648,8.501 14.068,8.52 C 14.488,8.54 14.865,8.622 15.198,8.766 C 15.531,8.911 15.823,9.124 16.073,9.405 C 16.906,10.327 17.323,11.355 17.323,12.488 C 17.323,13.153 17.254,13.745 17.115,14.264 C 16.976,14.784 16.8,15.22 16.589,15.571 C 16.377,15.923 16.080,16.22 15.698,16.462 C 15.316,16.705 14.946,16.892 14.589,17.025 C 14.231,17.158 13.769,17.262 13.203,17.336 C 12.637,17.41 12.13,17.455 11.682,17.471 C 11.234,17.486 10.67,17.494 9.99,17.494 C 9.309,17.494 8.747,17.486 8.302,17.471 C 7.858,17.455 7.352,17.41 6.787,17.336 C 6.221,17.262 5.759,17.158 5.401,17.025 C 5.043,16.892 4.674,16.705 4.292,16.462 C 3.91,16.22 3.613,15.923 3.401,15.571 C 3.189,15.22 3.014,14.784 2.875,14.264 C 2.736,13.745 2.667,13.153 2.667,12.488 ZM 5,11.875A1.25,1.875 2520 1 0 7.5,11.875A1.25,1.875 2520 1 0 5,11.875zM 12.5,11.875A1.25,1.875 2520 1 0 15,11.875A1.25,1.875 2520 1 0 12.5,11.875z"></path></g></svg>