<?xml version="1.0" encoding="utf-8"?> <!-- Generator: IcoMoon.io --> <!DOCTYPE svg PUBLIC "-//W3C//DTD SVG 1.1//EN" "http://www.w3.org/Graphics/SVG/1.1/DTD/svg11.dtd"> <svg width="20" height="20" viewBox="0 0 20 20" xmlns="http://www.w3.org/2000/svg" xmlns:xlink="http://www.w3.org/1999/xlink" fill="#141414"><g><path d="M 5.146,14.831c0,0.528, 0.447,0.793, 1.341,0.793c 0.782,0, 1.174-0.274, 1.174-0.823 c0-0.518-0.427-0.777-1.28-0.777C 5.557,14.024, 5.146,14.293, 5.146,14.831zM 16.667,0L 3.334,0 C 1.5,0,0,1.5,0,3.334l0,13.333 C0,18.501, 1.5,20, 3.334,20l 13.333,0 C 18.5,20, 20,18.501, 20,16.666L 20,3.334 C 20,1.5, 18.5,0, 16.667,0z M 9.292,7.988 c-0.142,0.051-0.345,0.107-0.61,0.168c 0.081,0.234, 0.122,0.452, 0.122,0.655c0,0.65-0.196,1.217-0.587,1.699 c-0.391,0.483-0.897,0.77-1.517,0.861c-0.406,0.061-0.61,0.28-0.61,0.655c0,0.132, 0.066,0.264, 0.198,0.396 c 0.173,0.193, 0.427,0.315, 0.762,0.366c 1.453,0.223, 2.179,0.828, 2.179,1.814c0,1.575-0.94,2.363-2.82,2.363 c-0.772,0-1.407-0.137-1.905-0.412c-0.63-0.345-0.945-0.889-0.945-1.631c0-0.854, 0.473-1.438, 1.417-1.753l0-0.030 c-0.345-0.213-0.518-0.538-0.518-0.975c0-0.569, 0.163-0.925, 0.488-1.067l0-0.031 c-0.325-0.112-0.615-0.366-0.869-0.762 c-0.284-0.427-0.427-0.884-0.427-1.372c0-0.732, 0.259-1.341, 0.777-1.829c 0.498-0.457, 1.092-0.686, 1.783-0.686 c 0.498,0, 0.96,0.122, 1.387,0.366c 0.488,0, 1.052-0.122, 1.692-0.366L 9.292,7.988L 9.292,7.988z M 11.761,13.262 l-1.722,0 c 0.020-0.203, 0.030-0.549, 0.030-1.036L 10.069,7.485 c0-0.478-0.010-0.808-0.030-0.991l 1.722,0 c-0.020,0.193-0.031,0.513-0.031,0.96l0,4.679 C 11.731,12.652, 11.741,13.028, 11.761,13.262z M 11.647,4.97 c-0.208,0.224-0.455,0.335-0.739,0.335c-0.295,0-0.546-0.112-0.754-0.335c-0.208-0.224-0.313-0.488-0.313-0.793 c0-0.315, 0.104-0.584, 0.313-0.808c 0.208-0.223, 0.46-0.335, 0.754-0.335c 0.284,0, 0.531,0.112, 0.739,0.335 c 0.208,0.224, 0.312,0.493, 0.312,0.808C 11.959,4.483, 11.855,4.747, 11.647,4.97z M 16.439,13.063 c-0.376,0.203-0.828,0.305-1.357,0.305c-0.742,0-1.255-0.264-1.539-0.792c-0.213-0.396-0.32-1.021-0.32-1.875l0-2.728 l 0.015,0 l0-0.031 l-0.229-0.015c-0.132,0-0.305,0.015-0.518,0.046L 12.492,6.495 l 0.747,0 l0-0.594 c0-0.285-0.015-0.513-0.046-0.686l 1.768,0 c-0.030,0.193-0.046,0.411-0.046,0.655l0,0.625 l 1.326,0 l0,1.478 c-0.051,0-0.145-0.005-0.282-0.015 c-0.137-0.010-0.267-0.015-0.389-0.015l-0.655,0 l0,2.835 c0,0.681, 0.224,1.021, 0.671,1.021c 0.315,0, 0.6-0.086, 0.854-0.259 L 16.439,13.063 L 16.439,13.063zM 6.274,7.82c-0.64,0-0.96,0.376-0.96,1.128c0,0.701, 0.32,1.052, 0.96,1.052 c 0.62,0, 0.93-0.356, 0.93-1.067c0-0.295-0.071-0.549-0.213-0.762C 6.817,7.937, 6.579,7.82, 6.274,7.82z"></path></g></svg>