<?xml version="1.0" encoding="utf-8"?> <!-- Generator: IcoMoon.io --> <!DOCTYPE svg PUBLIC "-//W3C//DTD SVG 1.1//EN" "http://www.w3.org/Graphics/SVG/1.1/DTD/svg11.dtd"> <svg width="20" height="20" viewBox="0 0 20 20" xmlns="http://www.w3.org/2000/svg" xmlns:xlink="http://www.w3.org/1999/xlink" fill="#141414"><g><path d="M 4.595,4.858c-0.992,0-1.845,0.328-2.56,0.985c-0.744,0.7-1.116,1.575-1.116,2.626 c0,0.7, 0.203,1.357, 0.611,1.969c 0.365,0.569, 0.746,0.934, 1.246,1.094l0,0.044 c-0.5,0.204-0.722,0.715-0.722,1.532 c0,0.627, 0.222,1.094, 0.722,1.401l0,0.044 c-1.38,0.452-2.012,1.291-2.012,2.516c0,1.065, 0.464,1.845, 1.368,2.341 C 2.847,19.803, 3.765,20, 4.874,20c 2.699,0, 4.051-1.131, 4.051-3.392c0-1.415-1.041-2.283-3.127-2.604 c-0.481-0.073-0.845-0.248-1.093-0.525c-0.19-0.19-0.284-0.379-0.284-0.569c0-0.54, 0.292-0.853, 0.875-0.941 c 0.89-0.131, 1.616-0.543, 2.177-1.236c 0.562-0.693, 0.842-1.506, 0.842-2.44c0-0.292-0.088-0.605-0.205-0.941 c 0.379-0.088, 0.646-0.168, 0.846-0.241L 8.956,4.858 c-0.88,0.35-1.699,0.525-2.399,0.525 C 5.944,5.033, 5.31,4.858, 4.595,4.858z M 4.836,15.777c 1.225,0, 1.838,0.372, 1.838,1.116 c0,0.788-0.562,1.181-1.685,1.181c-1.284,0-1.926-0.379-1.926-1.138C 3.064,16.163, 3.654,15.777, 4.836,15.777z M 4.683,10c-0.919,0-1.379-0.503-1.379-1.51c0-1.079, 0.46-1.619, 1.379-1.619c 0.438,0, 0.78,0.168, 1.028,0.503 c 0.204,0.306, 0.306,0.671, 0.306,1.094C 6.018,9.489, 5.573,10, 4.683,10zM 11.336,0c-0.423,0-0.784,0.16-1.083,0.481c-0.299,0.321-0.449,0.707-0.449,1.16 c0,0.438, 0.15,0.817, 0.449,1.138c 0.299,0.321, 0.66,0.481, 1.083,0.481c 0.408,0, 0.762-0.16, 1.061-0.481 c 0.299-0.321, 0.448-0.7, 0.448-1.138c0-0.452-0.149-0.839-0.448-1.16C 12.098,0.16, 11.744,0, 11.336,0zM 12.561,5l-2.473,0 c 0.029,0.28-0.013,0.704-0.013,1.389l0,6.805 c0,0.7, 0.042,1.265, 0.013,1.485l 2.473,0 c-0.029-0.32-0.105-0.872-0.105-1.616L 12.456,6.346 C 12.456,5.704, 12.532,5.28, 12.561,5zM 18.014,12.582c-0.642,0-0.959-0.489-0.959-1.466l0-4.036 l 0.974,0 c 0.175,0, 0.333-0.010, 0.53,0.005 c 0.197,0.015, 0.276,0.005, 0.377,0.005l0-2.090 l-1.88,0 l0-0.93 c0-0.35, 0.055-0.67, 0.099-0.87l-2.538,0 c 0.044,0.2, 0.040,0.505, 0.040,0.914L 14.656,5 l-1.1,0 l0,2.090 c 0.3-0.044, 0.568-0.066, 0.758-0.066l 0.342,0.022l0,0.011 l0,0l0,3.949 c0,1.225, 0.155,2.123, 0.462,2.691c 0.409,0.759, 1.125,1.138, 2.19,1.138c 0.759,0, 1.428-0.146, 1.928-0.438l0-2.188 C 18.836,12.458, 18.466,12.582, 18.014,12.582z"></path></g></svg>