<?xml version="1.0" encoding="utf-8"?> <!-- Generator: IcoMoon.io --> <!DOCTYPE svg PUBLIC "-//W3C//DTD SVG 1.1//EN" "http://www.w3.org/Graphics/SVG/1.1/DTD/svg11.dtd"> <svg width="20" height="20" viewBox="0 0 20 20" xmlns="http://www.w3.org/2000/svg" xmlns:xlink="http://www.w3.org/1999/xlink" fill="#141414"><g><path d="M 0.016,16.986c-0.005-0.049-0.009-0.099-0.011-0.149C 0.007,16.887, 0.011,16.936, 0.016,16.986zM 4.608,11.038c 1.797,0.053, 3.003-1.811, 2.693-4.164c-0.31-2.353-2.019-4.242-3.817-4.295 c-1.797-0.053-3.003,1.748-2.692,4.102C 1.101,9.033, 2.81,10.984, 4.608,11.038zM 20,5L 20,3.334 C 20,1.5, 18.5,0, 16.667,0L 3.334,0 C 1.531,0, 0.052,1.45, 0.002,3.241 c 1.14-1.004, 2.721-1.842, 4.353-1.842c 1.744,0, 6.977,0, 6.977,0l-1.561,1.321l-2.212,0 c 1.467,0.563, 2.249,2.268, 2.249,4.018c0,1.47-0.817,2.733-1.97,3.632c-1.126,0.877-1.339,1.244-1.339,1.99 c0,0.636, 1.206,1.719, 1.837,2.164c 1.843,1.3, 2.44,2.506, 2.44,4.521c0,0.321-0.040,0.641-0.118,0.956l 6.011,0 C 18.5,20, 20,18.501, 20,16.666L 20,6.25 l-3.75,0 L 16.25,10 l-1.25,0 l0-3.75 l-3.75,0 l0-1.25 L 15,5 L 15,1.25 l 1.25,0 l0,3.75 L 20,5 zM 3.631,14.96c 0.422,0, 0.809-0.012, 1.21-0.012c-0.53-0.514-0.95-1.145-0.95-1.921 c0-0.461, 0.148-0.905, 0.354-1.299c-0.211,0.015-0.426,0.019-0.647,0.019c-1.452,0-2.686-0.47-3.598-1.247l0,1.313 l 0,3.94C 1.044,15.258, 2.283,14.96, 3.631,14.96zM 0.067,17.329c-0.022-0.107-0.038-0.215-0.050-0.325C 0.028,17.114, 0.045,17.223, 0.067,17.329zM 8.896,18.61c-0.294-1.149-1.337-1.718-2.791-2.726c-0.529-0.171-1.111-0.271-1.736-0.278 c-1.75-0.019-3.381,0.682-4.301,1.726C 0.378,18.851, 1.728,20, 3.334,20l 5.595,0 c 0.035-0.217, 0.053-0.442, 0.053-0.673 C 8.981,19.083, 8.951,18.843, 8.896,18.61z"></path></g></svg>