<?xml version="1.0" encoding="utf-8"?> <!-- Generator: IcoMoon.io --> <!DOCTYPE svg PUBLIC "-//W3C//DTD SVG 1.1//EN" "http://www.w3.org/Graphics/SVG/1.1/DTD/svg11.dtd"> <svg width="20" height="20" viewBox="0 0 20 20" xmlns="http://www.w3.org/2000/svg" xmlns:xlink="http://www.w3.org/1999/xlink" fill="#141414"><g><path d="M 10.919,1.25c0,0-3.925,0-5.233,0C 3.34,1.25, 1.132,3.027, 1.132,5.086c0,2.104, 1.599,3.802, 3.986,3.802 c 0.166,0, 0.327-0.003, 0.485-0.015c-0.155,0.297-0.266,0.631-0.266,0.977c0,0.585, 0.315,1.059, 0.712,1.446 c-0.301,0-0.591,0.009-0.907,0.009C 2.237,11.306,0,13.156,0,15.076c0,1.89, 2.452,3.073, 5.358,3.073 c 3.313,0, 5.143-1.88, 5.143-3.77c0-1.516-0.447-2.423-1.83-3.401c-0.473-0.335-1.378-1.149-1.378-1.628 c0-0.561, 0.16-0.837, 1.004-1.497c 0.865-0.676, 1.478-1.627, 1.478-2.733c0-1.317-0.586-2.6-1.687-3.023l 1.659,0 L 10.919,1.25z M 9.091,14.052c 0.042,0.175, 0.064,0.356, 0.064,0.54c0,1.527-0.984,2.721-3.808,2.721 c-2.009,0-3.459-1.272-3.459-2.799c0-1.497, 1.799-2.743, 3.808-2.721c 0.469,0.005, 0.906,0.080, 1.302,0.209 C 8.089,12.759, 8.871,13.188, 9.091,14.052z M 5.875,8.355c-1.348-0.040-2.63-1.508-2.862-3.279 c-0.233-1.771, 0.671-3.126, 2.019-3.086c 1.348,0.041, 2.63,1.461, 2.862,3.232 C 8.127,6.993, 7.223,8.395, 5.875,8.355zM 16.25,5L 16.25,1.25L 15,1.25L 15,5L 11.25,5L 11.25,6.25L 15,6.25L 15,10L 16.25,10L 16.25,6.25L 20,6.25L 20,5 z"></path></g></svg>