<?xml version="1.0" encoding="utf-8"?> <!-- Generator: IcoMoon.io --> <!DOCTYPE svg PUBLIC "-//W3C//DTD SVG 1.1//EN" "http://www.w3.org/Graphics/SVG/1.1/DTD/svg11.dtd"> <svg width="20" height="20" viewBox="0 0 20 20" xmlns="http://www.w3.org/2000/svg" xmlns:xlink="http://www.w3.org/1999/xlink" fill="#141414"><g><path d="M 8.535,15.98 C 8.535,17.446 7.629,18.605 5.063,18.698 C 3.56,17.843 2.3,16.609 1.413,15.126 C 1.876,13.984 3.321,13.114 4.974,13.132 C 5.443,13.137 5.88,13.212 6.277,13.341 C 7.369,14.1 8.25,14.574 8.471,15.44 C 8.512,15.615 8.535,15.795 8.535,15.98 ZM 10,0C 7.111,0, 4.508,1.226, 2.682,3.186c 0.721-0.399, 1.573-0.637, 2.479-0.637c 1.31,0, 5.009,0, 5.009,0 L 9.050,3.723L 7.736,3.723 c 0.928,0.531, 1.421,1.626, 1.421,2.832c0,1.107-0.614,2-1.48,2.677 c-0.845,0.66-1.006,0.937-1.006,1.499c0,0.479, 1.010,1.193, 1.475,1.542c 1.618,1.213, 1.945,1.976, 1.945,3.494 c0,1.538-1.346,3.068-3.63,3.589C 7.561,19.771, 8.753,20, 10,20c 5.523,0, 10-4.477, 10-10S 15.523,0, 10,0z M 15,7.5l0,2.5 l-1.25,0 l0-2.5 l-2.5,0 l0-1.25 l 2.5,0 L 13.75,3.75 l 1.25,0 l0,2.5 l 2.5,0 l0,1.25 L 15,7.5 zM 7.144,6.63 C 7.377,8.403 6.6,9.544 5.251,9.504 C 3.901,9.463 2.618,8.225 2.385,6.452 C 2.152,4.679 3.057,3.322 4.407,3.363 C 5.756,3.403 6.911,4.858 7.144,6.63 ZM 4.314,12.54 C 2.856,12.54 1.616,13.044 0.743,13.788 C 0.264,12.619 0,11.341 0,10 C 0,8.891 0.181,7.825 0.514,6.828 C 0.658,8.77 2.025,10.269 4.283,10.269 C 4.449,10.269 4.61,10.261 4.769,10.249 C 4.613,10.547 4.503,10.878 4.503,11.226 C 4.503,11.811 4.825,12.145 5.223,12.532 C 4.922,12.532 4.631,12.54 4.314,12.54 Z"></path></g></svg>