<?xml version="1.0" encoding="utf-8"?> <!-- Generator: IcoMoon.io --> <!DOCTYPE svg PUBLIC "-//W3C//DTD SVG 1.1//EN" "http://www.w3.org/Graphics/SVG/1.1/DTD/svg11.dtd"> <svg width="20" height="20" viewBox="0 0 20 20" xmlns="http://www.w3.org/2000/svg" xmlns:xlink="http://www.w3.org/1999/xlink" fill="#141414"><g><path d="M 16.67,0L 3.306,0 C 1.468,0,0,1.519,0,3.357l0,13.288 C0,18.528, 1.468,20, 3.306,20l 13.365,0 C 18.508,20, 20,18.528, 20,16.645L 20,3.357 C 20,1.519, 18.508,0, 16.67,0z M 13.75,0.625l0,3.125 l-3.125,0 L 10.625,0.625 L 13.75,0.625 z M 9.375,0.625l0,3.125 l-3.125,0 L 6.25,0.625 L 9.375,0.625 z M 0.625,3.75L 0.625,3.357 C 0.625,1.851, 1.827,0.625, 3.306,0.625L 5,0.625 l0,3.125 L 0.625,3.75 z M 15,12.5l-3.75,0 l0,3.75 l-2.5,0 l0-3.75 l-3.75,0 l0-2.5 l 3.75,0 l0-3.75 l 2.5,0 l0,3.75 l 3.75,0 L 15,12.5 z M 19.375,3.75L 15,3.75 L 15,0.625 l 1.67,0 C 18.162,0.625, 19.375,1.851, 19.375,3.357L 19.375,3.75 z"></path></g></svg>