<?xml version="1.0" encoding="utf-8"?> <!-- Generator: IcoMoon.io --> <!DOCTYPE svg PUBLIC "-//W3C//DTD SVG 1.1//EN" "http://www.w3.org/Graphics/SVG/1.1/DTD/svg11.dtd"> <svg width="20" height="20" viewBox="0 0 20 20" xmlns="http://www.w3.org/2000/svg" xmlns:xlink="http://www.w3.org/1999/xlink" fill="#141414"><g><path d="M 16.68,0L 3.32,0 C 1.494,0,0,1.494,0,3.32l0,13.359 c0,1.826, 1.494,3.32, 3.32,3.32l 13.359,0 c 1.826,0, 3.32-1.494, 3.32-3.32L 20,3.32 C 20,1.494, 18.506,0, 16.68,0z M 6.402,8.75l 7.195,0 c 0.136,0.392, 0.211,0.812, 0.211,1.25c0,2.1-1.709,3.809-3.809,3.809c-2.1,0-3.809-1.709-3.809-3.809 C 6.191,9.562, 6.266,9.142, 6.402,8.75z M 17.5,8.751L 17.5,13.75 l0,2.5 c0,0.688-0.563,1.25-1.25,1.25L 3.75,17.5 c-0.688,0-1.25-0.563-1.25-1.25l0-2.5 L 2.5,8.751 L 2.5,8.75 l 1.955,0 c-0.091,0.402-0.139,0.821-0.139,1.25c0,3.134, 2.55,5.684, 5.684,5.684c 3.134,0, 5.684-2.55, 5.684-5.684 c0-0.429-0.048-0.848-0.139-1.25L 17.5,8.75 L 17.5,8.751 z M 17.5,4.375c0,0.344-0.281,0.625-0.625,0.625l-1.25,0 c-0.344,0-0.625-0.281-0.625-0.625L 15,3.125 c0-0.344, 0.281-0.625, 0.625-0.625l 1.25,0 c 0.344,0, 0.625,0.281, 0.625,0.625L 17.5,4.375 z"></path></g></svg>