<?xml version="1.0" encoding="utf-8"?> <!-- Generator: IcoMoon.io --> <!DOCTYPE svg PUBLIC "-//W3C//DTD SVG 1.1//EN" "http://www.w3.org/Graphics/SVG/1.1/DTD/svg11.dtd"> <svg width="20.00031280517578" height="20" viewBox="0 0 20.00031280517578 20" xmlns="http://www.w3.org/2000/svg" xmlns:xlink="http://www.w3.org/1999/xlink" fill="#141414"><g><path d="M 5.195,5.404c 0.641-0.641, 1.68-0.641, 2.32-0.001l 0.153,0.154l 1.975-1.976l-0.154-0.154 c-1.125-1.127-2.705-1.521-4.149-1.182C 5.134,0.972, 4.030,0.001, 2.701,0C 1.223,0, 0.026,1.2, 0.025,2.679 c0,1.276, 0.89,2.344, 2.083,2.614c-0.452,1.513-0.083,3.219, 1.11,4.414l 4.45,4.451l 1.973-1.977L 5.192,7.73 C 4.553,7.091, 4.552,6.048, 5.195,5.404zM 19.975,2.679C 19.975,1.199, 18.777,0, 17.299,0c-1.352,0-2.47,1.005-2.65,2.309 c-1.505-0.443-3.199-0.068-4.387,1.121l-4.45,4.451l 1.975,1.976l 4.449-4.45c 0.643-0.644, 1.679-0.643, 2.318-0.004 c 0.641,0.641, 0.641,1.682-0.001,2.323l-0.152,0.153l 1.973,1.978l 0.153-0.155c 1.181-1.183, 1.556-2.866, 1.125-4.368 C 18.963,5.162, 19.975,4.039, 19.975,2.679zM 17.701,14.669c 0.354-1.454-0.039-3.053-1.174-4.189L 12.083,6.027l-1.975,1.975l 4.444,4.453 c 0.643,0.644, 0.642,1.682, 0.004,2.321c-0.641,0.641-1.68,0.641-2.321-0.001l-0.152-0.152l-1.973,1.977l 0.151,0.151 c 1.201,1.203, 2.922,1.571, 4.441,1.103C 14.949,19.080, 16.029,20, 17.325,20C 18.801,20, 20,18.802, 20,17.322 C 20,15.97, 19,14.852, 17.701,14.669zM 11.96,10.326L 7.516,14.779c-0.639,0.64-1.68,0.641-2.323-0.002c-0.641-0.643-0.641-1.682-0.001-2.324 l 0.152-0.152l-1.974-1.975l-0.151,0.151c-1.148,1.148-1.534,2.77-1.161,4.238C 0.878,14.993,0,16.055,0,17.322 C-0,18.801, 1.198,20, 2.675,20c 1.271-0.001, 2.336-0.887, 2.608-2.078c 1.459,0.362, 3.066-0.025, 4.206-1.167 l 4.443-4.452L 11.96,10.326z"></path></g></svg>