<?xml version="1.0" encoding="utf-8"?> <!-- Generator: IcoMoon.io --> <!DOCTYPE svg PUBLIC "-//W3C//DTD SVG 1.1//EN" "http://www.w3.org/Graphics/SVG/1.1/DTD/svg11.dtd"> <svg width="20" height="20" viewBox="0 0 20 20" xmlns="http://www.w3.org/2000/svg" xmlns:xlink="http://www.w3.org/1999/xlink" fill="#141414"><g><path d="M 16.641,0L 3.359,0 C 1.512,0,0,1.512,0,3.359l0,13.281 c0,1.848, 1.512,3.359, 3.359,3.359l 13.281,0 c 1.848,0, 3.359-1.512, 3.359-3.359L 20,3.359 C 20,1.512, 18.488,0, 16.641,0z M 16.478,15.775c-2.214,0.729-6.536,2.148-7.344,2.35s-1.641,0.54-2.109-0.814c0,0-3.984-11.771-4.349-12.813S 1.956,2.829, 2.78,2.5 c 1.902-0.76, 3.88-1.729, 4.245-0.625c 0.326,0.987, 3.802,11.875, 3.802,11.875s 4.089-1.439, 5.208-1.751s 1.504-0.521, 1.797,1.016 S 18.691,15.046, 16.478,15.775z"></path></g></svg>