<?xml version="1.0" encoding="utf-8"?> <!-- Generator: IcoMoon.io --> <!DOCTYPE svg PUBLIC "-//W3C//DTD SVG 1.1//EN" "http://www.w3.org/Graphics/SVG/1.1/DTD/svg11.dtd"> <svg width="20" height="20" viewBox="0 0 20 20" xmlns="http://www.w3.org/2000/svg" xmlns:xlink="http://www.w3.org/1999/xlink" fill="#141414"><g><path d="M 13.75,7.7 L 6.632,0.582 C 7.684,0.206 8.818,0 10,0 C 11.326,0 12.592,0.259 13.75,0.728 L 13.75,7.7 ZM 15,13.75 L 15,1.338 C 17.989,3.067 20,6.299 20,10 C 20,11.326 19.741,12.592 19.272,13.75 L 15,13.75 ZM 6.25,15 L 18.662,15 C 16.933,17.989 13.701,20 10,20 C 8.674,20 7.408,19.741 6.25,19.272 L 6.25,15 ZM 8.325,4.375 L 0.293,12.408 C 0.102,11.637 0,10.83 0,10 C 0,6.223 2.094,2.936 5.185,1.234 L 8.325,4.375 ZM 5,9.8 L 5,18.662 C 3.152,17.593 1.679,15.95 0.823,13.977 L 5,9.8 Z"></path></g></svg>