<?xml version="1.0" encoding="utf-8"?> <!-- Generator: IcoMoon.io --> <!DOCTYPE svg PUBLIC "-//W3C//DTD SVG 1.1//EN" "http://www.w3.org/Graphics/SVG/1.1/DTD/svg11.dtd"> <svg width="20" height="20" viewBox="0 0 20 20" xmlns="http://www.w3.org/2000/svg" xmlns:xlink="http://www.w3.org/1999/xlink" fill="#141414"><g><path d="M 10,0C 4.477,0,0,4.477,0,10s 4.477,10, 10,10c 5.523,0, 10-4.477, 10-10S 15.523,0, 10,0z M 10.97,13.362 c-0.909-0.071-1.29-0.521-2.002-0.953C 8.576,14.463, 8.097,16.432, 6.68,17.461 c-0.438-3.105, 0.642-5.437, 1.144-7.912c-0.855-1.44, 0.103-4.337, 1.907-3.623 c 2.219,0.878-1.922,5.352, 0.858,5.91c 2.903,0.583, 4.088-5.036, 2.288-6.864 c-2.601-2.639-7.57-0.060-6.959,3.718c 0.149,0.924, 1.103,1.204, 0.381,2.479c-1.664-0.369-2.161-1.682-2.097-3.432 c 0.103-2.865, 2.574-4.87, 5.052-5.148c 3.134-0.351, 6.076,1.151, 6.483,4.099 C 16.193,10.017, 14.321,13.621, 10.97,13.362z"></path></g></svg>