<?xml version="1.0" encoding="utf-8"?> <!-- Generator: IcoMoon.io --> <!DOCTYPE svg PUBLIC "-//W3C//DTD SVG 1.1//EN" "http://www.w3.org/Graphics/SVG/1.1/DTD/svg11.dtd"> <svg width="20" height="20" viewBox="0 0 20 20" xmlns="http://www.w3.org/2000/svg" xmlns:xlink="http://www.w3.org/1999/xlink" fill="#141414"><g><path d="M 16.667,0L 3.333,0 C 1.492,0,0,1.493,0,3.334l0,13.333 C0,18.507, 1.492,20, 3.333,20l 13.334,0 C 18.508,20, 20,18.507, 20,16.666L 20,3.334 C 20,1.493, 18.508,0, 16.667,0z M 10.97,13.362 c-0.909-0.071-1.29-0.521-2.002-0.953c-0.392,2.054-0.87,4.024-2.288,5.053 c-0.438-3.105, 0.642-5.437, 1.144-7.912c-0.855-1.44, 0.103-4.337, 1.907-3.623 c 2.219,0.878-1.922,5.352, 0.858,5.91c 2.903,0.583, 4.088-5.036, 2.288-6.864 c-2.601-2.639-7.57-0.060-6.959,3.718c 0.149,0.924, 1.103,1.204, 0.381,2.479c-1.664-0.369-2.161-1.682-2.097-3.432 c 0.103-2.865, 2.574-4.87, 5.052-5.148c 3.134-0.351, 6.076,1.151, 6.483,4.099 C 16.193,10.017, 14.321,13.621, 10.97,13.362z"></path></g></svg>