<?xml version="1.0" encoding="utf-8"?> <!-- Generator: IcoMoon.io --> <!DOCTYPE svg PUBLIC "-//W3C//DTD SVG 1.1//EN" "http://www.w3.org/Graphics/SVG/1.1/DTD/svg11.dtd"> <svg width="20" height="20" viewBox="0 0 20 20" xmlns="http://www.w3.org/2000/svg" xmlns:xlink="http://www.w3.org/1999/xlink" fill="#141414"><g><path d="M 5,12.5A1.25,1.25 2520 1 0 7.5,12.5A1.25,1.25 2520 1 0 5,12.5zM 12.5,12.5A1.25,1.25 2520 1 0 15,12.5A1.25,1.25 2520 1 0 12.5,12.5zM 12.561,15.171 C 12.883,14.918 13.349,14.973 13.603,15.295 C 13.857,15.617 13.801,16.084 13.479,16.337 C 12.583,17.044 11.217,17.5 10,17.5 C 8.783,17.5 7.417,17.044 6.521,16.337 C 6.199,16.084 6.143,15.617 6.397,15.295 C 6.651,14.973 7.117,14.918 7.439,15.171 C 7.955,15.578 8.977,16.016 10,16.016 C 11.023,16.016 12.045,15.578 12.561,15.171 ZM 20,10c0-1.381-1.119-2.5-2.5-2.5c-0.94,0-1.758,0.519-2.185,1.286c-1.285-0.703-2.851-1.157-4.556-1.262 l 1.492-3.35l 2.855,0.824C 15.363,5.727, 16.058,6.25, 16.875,6.25c 1.036,0, 1.875-0.839, 1.875-1.875s-0.839-1.875-1.875-1.875 c-0.714,0-1.335,0.399-1.651,0.987L 12.042,2.568c-0.356-0.103-0.733,0.073-0.884,0.411l-2.027,4.551 c-1.663,0.117-3.189,0.567-4.446,1.255C 4.258,8.019, 3.44,7.5, 2.5,7.5c-1.381,0-2.5,1.119-2.5,2.5 c0,1.022, 0.613,1.899, 1.492,2.287C 1.334,12.756, 1.25,13.246, 1.25,13.75c0,3.452, 3.917,6.25, 8.75,6.25 c 4.832,0, 8.75-2.798, 8.75-6.25c0-0.504-0.084-0.993-0.242-1.463C 19.387,11.9, 20,11.022, 20,10z M 16.875,3.672 c 0.388,0, 0.703,0.315, 0.703,0.703s-0.315,0.703-0.703,0.703s-0.703-0.315-0.703-0.703S 16.487,3.672, 16.875,3.672z M 1.25,10c0-0.689, 0.561-1.25, 1.25-1.25 c 0.498,0, 0.929,0.293, 1.13,0.716c-0.653,0.495-1.195,1.067-1.595,1.694C 1.575,10.975, 1.25,10.525, 1.25,10z M 10,18.516 c-4.013,0-7.266-2.134-7.266-4.766s 3.253-4.766, 7.266-4.766c 4.013,0, 7.266,2.134, 7.266,4.766S 14.013,18.516, 10,18.516z M 17.965,11.16 c-0.4-0.627-0.942-1.199-1.595-1.694C 16.571,9.043, 17.002,8.75, 17.5,8.75c 0.689,0, 1.25,0.561, 1.25,1.25 C 18.75,10.525, 18.425,10.975, 17.965,11.16z"></path></g></svg>