<?xml version="1.0" encoding="utf-8"?> <!-- Generator: IcoMoon.io --> <!DOCTYPE svg PUBLIC "-//W3C//DTD SVG 1.1//EN" "http://www.w3.org/Graphics/SVG/1.1/DTD/svg11.dtd"> <svg width="20" height="20" viewBox="0 0 20 20" xmlns="http://www.w3.org/2000/svg" xmlns:xlink="http://www.w3.org/1999/xlink" fill="#141414"><g><path d="M 19.049,11.288c 0.055-0.406, 0.087-0.819, 0.087-1.24c0-5.045-4.112-9.136-9.184-9.136 c-0.504,0-0.998,0.041-1.479,0.12c-0.862-0.562-1.888-0.889-2.993-0.889C 2.452,0.144,0,2.597,0,5.624 c0,1.101, 0.324,2.125, 0.882,2.984c-0.075,0.469-0.114,0.95-0.114,1.44c0,5.046, 4.11,9.136, 9.183,9.136 c 0.573,0, 1.13-0.056, 1.672-0.154c 0.842,0.522, 1.833,0.826, 2.896,0.826C 17.547,19.856, 20,17.402, 20,14.375 C 20,13.231, 19.65,12.167, 19.049,11.288z M 10.81,16.781c-2.918,0.152-4.284-0.494-5.535-1.668 c-1.397-1.311-0.836-2.807, 0.302-2.883c 1.138-0.076, 1.821,1.29, 2.428,1.669c 0.606,0.378, 2.914,1.241, 4.133-0.153 c 1.327-1.517-0.883-2.302-2.502-2.539c-2.313-0.342-5.232-1.593-5.005-4.059c 0.227-2.464, 2.093-3.727, 4.057-3.905 c 2.503-0.227, 4.132,0.379, 5.421,1.479c 1.49,1.271, 0.684,2.691-0.266,2.805c-0.946,0.114-2.008-2.090-4.093-2.123 c-2.149-0.034-3.602,2.237-0.949,2.882c 2.655,0.645, 5.498,0.91, 6.522,3.337 C 16.347,14.051, 13.731,16.629, 10.81,16.781z"></path></g></svg>