<?xml version="1.0" encoding="utf-8"?> <!-- Generator: IcoMoon.io --> <!DOCTYPE svg PUBLIC "-//W3C//DTD SVG 1.1//EN" "http://www.w3.org/Graphics/SVG/1.1/DTD/svg11.dtd"> <svg width="20" height="20" viewBox="0 0 20 20" xmlns="http://www.w3.org/2000/svg" xmlns:xlink="http://www.w3.org/1999/xlink" fill="#141414"><g><path d="M 17.421,10.043c-0.353,0-0.69,0.069-0.997,0.193C 16.219,8.002, 14.27,6.25, 11.892,6.25 c-0.582,0-1.146,0.11-1.647,0.296c-0.195,0.072-0.246,0.147-0.246,0.291l0,7.866 c0,0.152, 0.122,0.278, 0.276,0.293 C 10.282,14.997, 17.376,15, 17.422,15C 18.846,15, 20,13.89, 20,12.522S 18.845,10.043, 17.421,10.043zM 7.813,15L 8.438,15L 8.75,10.621L 8.438,6.25L 7.813,6.25L 7.5,10.621 zM 5.938,15L 5.313,15L 5,11.821L 5.313,8.75L 5.938,8.75L 6.25,11.875 zM 2.813,15L 3.438,15L 3.75,12.5L 3.438,10L 2.813,10L 2.5,12.5 zM 0.313,13.75L 0.938,13.75L 1.25,12.5L 0.938,11.25L 0.313,11.25L0,12.5 z"></path></g></svg>