<?xml version="1.0" encoding="utf-8"?> <!-- Generator: IcoMoon.io --> <!DOCTYPE svg PUBLIC "-//W3C//DTD SVG 1.1//EN" "http://www.w3.org/Graphics/SVG/1.1/DTD/svg11.dtd"> <svg width="20" height="20" viewBox="0 0 20 20" xmlns="http://www.w3.org/2000/svg" xmlns:xlink="http://www.w3.org/1999/xlink" fill="#141414"><g><path d="M 16.667,0L 3.334,0 C 1.5,0, 0,1.5, 0,3.334l0,9.166 L 0.313,11.25l 0.625,0 l 0.313,1.25l-0.313,1.25L 0.313,13.75 l-0.313-1.25l0,4.166 C 0,18.501, 1.5,20, 3.334,20l 13.334,0 C 18.501,20, 20,18.501, 20,16.666L 20,12.522 C 20,13.89, 18.846,15, 17.422,15 c-0.046,0-7.14-0.003-7.146-0.004c-0.154-0.015-0.276-0.141-0.276-0.293L 10,6.837 c0-0.144, 0.051-0.219, 0.246-0.291 c 0.501-0.186, 1.065-0.296, 1.647-0.296c 2.377,0, 4.326,1.752, 4.531,3.986c 0.307-0.124, 0.644-0.193, 0.997-0.193 c 1.424,0, 2.579,1.11, 2.579,2.479L 20,3.334 C 20,1.5, 18.501,0, 16.667,0z M 3.438,15L 2.813,15 l-0.313-2.5l 0.313-2.5l 0.625,0 l 0.313,2.5L 3.438,15z M 5.938,15l-0.625,0 l-0.313-3.179L 5.313,8.75l 0.625,0 l 0.313,3.125L 5.938,15z M 8.438,15l-0.625,0 l-0.313-4.379L 7.813,6.25l 0.625,0 l 0.313,4.371L 8.438,15z"></path></g></svg>