<?xml version="1.0" encoding="utf-8"?> <!-- Generator: IcoMoon.io --> <!DOCTYPE svg PUBLIC "-//W3C//DTD SVG 1.1//EN" "http://www.w3.org/Graphics/SVG/1.1/DTD/svg11.dtd"> <svg width="20" height="20" viewBox="0 0 20 20" xmlns="http://www.w3.org/2000/svg" xmlns:xlink="http://www.w3.org/1999/xlink" fill="#141414"><g><path d="M 5.936,16.328 C 6.466,16.328 6.986,16.072 7.303,15.598 C 7.805,14.844 7.601,13.825 6.848,13.322 L 5.557,12.462 C 5.778,12.402 6.010,12.369 6.25,12.369 C 7.703,12.369 8.881,13.547 8.881,15 C 8.881,16.453 7.703,17.631 6.25,17.631 C 4.836,17.631 3.683,16.515 3.622,15.116 L 5.027,16.053 C 5.307,16.239 5.623,16.328 5.936,16.328 ZM 16.667,0 C 18.5,0 20,1.5 20,3.334 L 20,16.666 C 20,18.501 18.5,20 16.667,20 L 3.334,20 C 1.5,20 0,18.501 0,16.666 L 0,12.701 L 2.37,14.281 C 2.142,15.515 2.505,16.836 3.46,17.79 C 5.001,19.331 7.499,19.331 9.040,17.79 C 9.987,16.844 10.352,15.536 10.136,14.311 L 15,9.955 L 15,9.955 C 15.903,9.826 16.774,9.413 17.469,8.719 C 19.177,7.010 19.177,4.24 17.469,2.531 C 15.76,0.823 12.99,0.823 11.281,2.531 C 10.587,3.226 10.174,4.097 10.045,5 L 10.045,5 L 6.047,11.059 C 5.425,11.091 4.809,11.269 4.255,11.594 L 0,8.757 L 0,3.334 C 0,1.5 1.5,0 3.334,0 L 16.667,0 ZM 17.5,5.625c0-1.726-1.399-3.125-3.125-3.125s-3.125,1.399-3.125,3.125s 1.399,3.125, 3.125,3.125S 17.5,7.351, 17.5,5.625z M 12.5,5.625 c0-1.036, 0.839-1.875, 1.875-1.875s 1.875,0.839, 1.875,1.875s-0.839,1.875-1.875,1.875S 12.5,6.661, 12.5,5.625z"></path></g></svg>