<?xml version="1.0" encoding="utf-8"?> <!-- Generator: IcoMoon.io --> <!DOCTYPE svg PUBLIC "-//W3C//DTD SVG 1.1//EN" "http://www.w3.org/Graphics/SVG/1.1/DTD/svg11.dtd"> <svg width="20.637149810791016" height="20" viewBox="0 0 20.637149810791016 20" xmlns="http://www.w3.org/2000/svg" xmlns:xlink="http://www.w3.org/1999/xlink" fill="#141414"><g><path d="M 13.75,5.625A1.875,1.875 1080 1 0 17.5,5.625A1.875,1.875 1080 1 0 13.75,5.625zM 18.719,2.531c-1.709-1.709-4.479-1.709-6.187,0c-0.695,0.695-1.107,1.565-1.237,2.469l0,0 L 7.297,11.059 c-0.537,0.028-1.070,0.164-1.562,0.41L 2.651,9.059c-0.714-0.558-1.745-0.432-2.303,0.282 c-0.558,0.714-0.432,1.745, 0.282,2.303l 3.046,2.381c-0.331,1.304, 0.013,2.745, 1.034,3.766 c 1.541,1.541, 4.040,1.541, 5.581,0c 0.947-0.947, 1.312-2.254, 1.095-3.48L 16.25,9.955l-0-0 c 0.903-0.13, 1.774-0.542, 2.469-1.237C 20.427,7.010, 20.427,4.24, 18.719,2.531z M 7.5,17.631 c-1.453,0-2.631-1.178-2.631-2.631c0-0.014, 0.001-0.028, 0.001-0.041l 1.307,1.022c 0.3,0.234, 0.656,0.348, 1.009,0.348 c 0.488,0, 0.97-0.216, 1.294-0.63c 0.558-0.714, 0.432-1.745-0.282-2.303l-1.24-0.969c 0.175-0.037, 0.356-0.056, 0.542-0.056 c 1.453,0, 2.631,1.178, 2.631,2.631S 8.953,17.631, 7.5,17.631z M 15.625,8.75c-1.726,0-3.125-1.399-3.125-3.125s 1.399-3.125, 3.125-3.125 s 3.125,1.399, 3.125,3.125S 17.351,8.75, 15.625,8.75z"></path></g></svg>