<?xml version="1.0" encoding="utf-8"?> <!-- Generator: IcoMoon.io --> <!DOCTYPE svg PUBLIC "-//W3C//DTD SVG 1.1//EN" "http://www.w3.org/Graphics/SVG/1.1/DTD/svg11.dtd"> <svg width="20" height="20" viewBox="0 0 20 20" xmlns="http://www.w3.org/2000/svg" xmlns:xlink="http://www.w3.org/1999/xlink" fill="#141414"><g><path d="M 10,0C 4.477,0,0,4.477,0,10s 4.477,10, 10,10s 10-4.477, 10-10S 15.523,0, 10,0z M 10,5 c-0.689,0-1.25,0.561-1.25,1.25l0,5 c0,2.068-1.682,3.75-3.75,3.75s-3.75-1.682-3.75-3.75l0-2.5 l 2.5,0 l0,2.5 c0,0.689, 0.561,1.25, 1.25,1.25s 1.25-0.561, 1.25-1.25L 6.25,6.25 c0-2.068, 1.682-3.75, 3.75-3.75s 3.75,1.682, 3.75,3.477l0,1.211 l-1.602,0.469l-0.898-0.469l0-1.211 C 11.25,5.561, 10.689,5, 10,5z M 15,15 c-2.068,0-3.75-1.682-3.75-4.023l0-2.422 l 0.898,0.469l 1.602-0.469l0,2.422 c0,0.963, 0.561,1.523, 1.25,1.523s 1.25-0.561, 1.25-1.25l0-2.5 l 2.5,0 l0,2.5 C 18.75,13.318, 17.068,15, 15,15z"></path></g></svg>