<?xml version="1.0" encoding="utf-8"?> <!-- Generator: IcoMoon.io --> <!DOCTYPE svg PUBLIC "-//W3C//DTD SVG 1.1//EN" "http://www.w3.org/Graphics/SVG/1.1/DTD/svg11.dtd"> <svg width="20" height="20" viewBox="0 0 20 20" xmlns="http://www.w3.org/2000/svg" xmlns:xlink="http://www.w3.org/1999/xlink" fill="#141414"><g><path d="M 16.641,0L 3.359,0 C 1.512,0,0,1.512,0,3.359l0,13.281 c0,1.848, 1.512,3.359, 3.359,3.359l 13.281,0 c 1.848,0, 3.359-1.512, 3.359-3.359L 20,3.359 C 20,1.512, 18.488,0, 16.641,0z M 10,6.25 c-0.689,0-1.25,0.561-1.25,1.25l0,5 c0,2.068-1.682,3.75-3.75,3.75s-3.75-1.682-3.75-3.75l0-2.5 l 2.5,0 l0,2.5 c0,0.689, 0.561,1.25, 1.25,1.25s 1.25-0.561, 1.25-1.25L 6.25,7.5 c0-2.068, 1.682-3.75, 3.75-3.75c 2.068,0, 3.75,1.682, 3.75,3.477l0,1.211 l-1.602,0.469l-0.898-0.469l0-1.211 C 11.25,6.811, 10.689,6.25, 10,6.25z M 18.75,12.5 c0,2.068-1.682,3.75-3.75,3.75s-3.75-1.682-3.75-4.023l0-2.422 l 0.898,0.469l 1.602-0.469l0,2.422 c0,0.963, 0.561,1.523, 1.25,1.523s 1.25-0.561, 1.25-1.25l0-2.5 l 2.5,0 L 18.75,12.5 z"></path></g></svg>