<?xml version="1.0" encoding="utf-8"?> <!-- Generator: IcoMoon.io --> <!DOCTYPE svg PUBLIC "-//W3C//DTD SVG 1.1//EN" "http://www.w3.org/Graphics/SVG/1.1/DTD/svg11.dtd"> <svg width="20" height="20" viewBox="0 0 20 20" xmlns="http://www.w3.org/2000/svg" xmlns:xlink="http://www.w3.org/1999/xlink" fill="#141414"><g><path d="M 11.251,8.75 L 11.251,13.324 C 11.251,14.484 11.236,15.153 11.359,15.482 C 11.481,15.809 11.787,16.149 12.12,16.345 C 12.563,16.611 13.068,16.743 13.638,16.743 C 14.651,16.743 15.249,16.61 16.25,15.952 L 16.25,18.958 L 16.25,18.958 C 15.396,19.36 14.651,19.595 13.959,19.758 C 13.265,19.919 12.516,20 11.711,20 C 10.797,20 10.257,19.885 9.555,19.655 C 8.852,19.423 8.253,19.092 7.757,18.668 C 7.26,18.24 6.917,17.785 6.725,17.304 C 6.533,16.823 6.438,16.124 6.438,15.209 L 6.438,8.196 L 3.754,8.196 L 3.754,5.364 C 4.539,5.109 5.417,4.743 5.976,4.267 C 6.538,3.789 6.987,3.218 7.326,2.549 C 7.665,1.882 7.899,1.031 8.026,0 L 11.251,0 L 11.251,5 L 16.25,5 L 16.25,8.75 L 11.251,8.75 Z"></path></g></svg>