<?xml version="1.0" encoding="utf-8"?> <!-- Generator: IcoMoon.io --> <!DOCTYPE svg PUBLIC "-//W3C//DTD SVG 1.1//EN" "http://www.w3.org/Graphics/SVG/1.1/DTD/svg11.dtd"> <svg width="20.81292724609375" height="20.710742950439453" viewBox="0 0 20.81292724609375 20.710742950439453" xmlns="http://www.w3.org/2000/svg" xmlns:xlink="http://www.w3.org/1999/xlink" fill="#141414"><g><path d="M 11.087,14.393c-1.6,0.744-3.089,0.737-4.089,0.664c-1.192-0.086-2.152-0.413-2.573-0.698 c-0.26-0.176-0.613-0.108-0.789,0.152c-0.176,0.26-0.108,0.613, 0.152,0.789c 0.678,0.459, 1.876,0.8, 3.128,0.89 c 0.212,0.015, 0.445,0.025, 0.696,0.025c 1.089,0, 2.473-0.104, 3.954-0.792c 0.284-0.132, 0.408-0.47, 0.275-0.755 C 11.709,14.384, 11.372,14.261, 11.087,14.393zM 17.401,13.551c 0.054-4.935, 0.562-14.262-8.886-13.508C-0.813,0.794, 1.66,10.648, 1.521,13.948 C 1.398,15.694, 0.819,17.828,0,20l 2.521,0 c 0.259-0.92, 0.45-1.83, 0.532-2.698c 0.152,0.106, 0.315,0.208, 0.488,0.307 c 0.282,0.166, 0.525,0.388, 0.782,0.622c 0.6,0.547, 1.281,1.167, 2.612,1.245c 0.089,0.005, 0.179,0.008, 0.267,0.008 c 1.346,0, 2.266-0.589, 3.005-1.062c 0.354-0.227, 0.661-0.423, 0.949-0.517c 0.819-0.256, 1.534-0.67, 2.068-1.196 c 0.084-0.082, 0.161-0.167, 0.234-0.253c 0.298,1.091, 0.705,2.319, 1.158,3.545L 20,20 C 18.708,18.003, 17.374,16.047, 17.401,13.551z M 2.424,10.866c0-0,0-0.001-0-0.001 c-0.093-1.611, 0.678-2.965, 1.721-3.026c 1.043-0.061, 1.964,1.196, 2.057,2.806c0,0, 0,0.001, 0,0.001 c 0.005,0.087, 0.007,0.173, 0.007,0.258c-0.331,0.083-0.629,0.204-0.896,0.344c-0.001-0.012-0.002-0.024-0.003-0.036 c0-0,0-0,0-0.001c-0.089-0.914-0.578-1.605-1.091-1.542c-0.513,0.063-0.857,0.854-0.768,1.769 c0,0, 0,0, 0,0.001c 0.039,0.399, 0.154,0.755, 0.313,1.024c-0.040,0.031-0.152,0.114-0.281,0.208 c-0.097,0.071-0.215,0.157-0.358,0.262C 2.738,12.425, 2.472,11.693, 2.424,10.866z M 12.993,14.847 c-0.037,0.851-1.151,1.652-2.179,1.974l-0.006,0.002c-0.428,0.139-0.809,0.383-1.213,0.641 c-0.678,0.434-1.38,0.883-2.393,0.883c-0.066,0-0.135-0.002-0.202-0.006c-0.928-0.054-1.362-0.45-1.912-0.951 c-0.29-0.264-0.59-0.537-0.976-0.764l-0.008-0.005c-0.834-0.471-1.352-1.056-1.385-1.566 c-0.016-0.254, 0.096-0.473, 0.336-0.652c 0.52-0.39, 0.869-0.645, 1.099-0.814c 0.256-0.187, 0.333-0.244, 0.391-0.298 c 0.041-0.039, 0.085-0.082, 0.133-0.128c 0.477-0.464, 1.277-1.241, 2.503-1.241c 0.75,0, 1.58,0.289, 2.464,0.857 c 0.416,0.271, 0.779,0.396, 1.238,0.555c 0.316,0.109, 0.673,0.232, 1.152,0.438l 0.008,0.003 C 12.49,13.958, 13.018,14.293, 12.993,14.847z M 12.747,12.848c-0.086-0.043-0.175-0.084-0.268-0.123 c-0.432-0.185-0.778-0.31-1.065-0.41c 0.159-0.31, 0.257-0.698, 0.266-1.118c0-0,0-0,0-0.001 c 0.022-1.023-0.494-1.853-1.152-1.855c-0.658-0.002-1.21,0.826-1.232,1.849c0,0,0,0,0,0.001 c-0.001,0.033-0.001,0.067-0,0.1c-0.406-0.187-0.804-0.322-1.195-0.405c-0.002-0.038-0.004-0.077-0.005-0.116 c0-0,0-0.001,0-0.001c-0.038-1.864, 1.106-3.406, 2.554-3.445c 1.448-0.039, 2.653,1.439, 2.691,3.303 c0,0,0,0.001,0,0.001C 13.357,11.47, 13.132,12.246, 12.747,12.848z"></path></g></svg>