<?xml version="1.0" encoding="utf-8"?> <!-- Generator: IcoMoon.io --> <!DOCTYPE svg PUBLIC "-//W3C//DTD SVG 1.1//EN" "http://www.w3.org/Graphics/SVG/1.1/DTD/svg11.dtd"> <svg width="20.000078201293945" height="20" viewBox="0 0 20.000078201293945 20" xmlns="http://www.w3.org/2000/svg" xmlns:xlink="http://www.w3.org/1999/xlink" fill="#141414"><g><path d="M 20,3.797c-0.736,0.326-1.527,0.547-2.357,0.646c 0.847-0.508, 1.498-1.312, 1.804-2.27 c-0.793,0.47-1.671,0.812-2.606,0.996c-0.748-0.797-1.815-1.296-2.995-1.296c-2.266,0-4.103,1.837-4.103,4.103 c0,0.322, 0.036,0.635, 0.106,0.935c-3.41-0.171-6.434-1.805-8.457-4.287c-0.353,0.606-0.556,1.311-0.556,2.063 c0,1.424, 0.724,2.68, 1.825,3.415c-0.673-0.021-1.305-0.206-1.858-0.513c-0,0.017-0,0.034-0,0.052 c0,1.988, 1.414,3.646, 3.291,4.023c-0.344,0.094-0.707,0.144-1.081,0.144c-0.264,0-0.521-0.026-0.772-0.074 c 0.522,1.63, 2.037,2.817, 3.833,2.85c-1.404,1.101-3.174,1.757-5.096,1.757c-0.331,0-0.658-0.019-0.979-0.057 c 1.816,1.164, 3.973,1.844, 6.29,1.844c 7.547,0, 11.675-6.252, 11.675-11.675c0-0.178-0.004-0.355-0.012-0.531 C 18.754,5.343, 19.45,4.62, 20,3.797z"></path></g></svg>