<?xml version="1.0" encoding="utf-8"?> <!-- Generator: IcoMoon.io --> <!DOCTYPE svg PUBLIC "-//W3C//DTD SVG 1.1//EN" "http://www.w3.org/Graphics/SVG/1.1/DTD/svg11.dtd"> <svg width="20" height="20" viewBox="0 0 20 20" xmlns="http://www.w3.org/2000/svg" xmlns:xlink="http://www.w3.org/1999/xlink" fill="#141414"><g><path d="M 16.667,0L 3.334,0 C 1.5,0,0,1.5,0,3.334l0,13.332 C0,18.501, 1.5,20, 3.334,20l 13.333,0 C 18.5,20, 20,18.501, 20,16.666L 20,3.334 C 20,1.5, 18.5,0, 16.667,0z M 16.368,6.676 c 0.006,0.143, 0.010,0.288, 0.010,0.433c0,4.418-3.305,9.513-9.349,9.513c-1.856,0-3.583-0.554-5.037-1.502 c 0.257,0.031, 0.519,0.047, 0.784,0.047c 1.539,0, 2.956-0.535, 4.081-1.431c-1.438-0.027-2.651-0.994-3.069-2.322 c 0.201,0.039, 0.406,0.060, 0.618,0.060c 0.3,0, 0.59-0.041, 0.866-0.117c-1.503-0.307-2.636-1.659-2.636-3.278 c0-0.014,0-0.028, 0-0.042c 0.443,0.25, 0.95,0.401, 1.488,0.418c-0.882-0.6-1.462-1.623-1.462-2.783 c0-0.613, 0.162-1.187, 0.445-1.681c 1.621,2.023, 4.042,3.354, 6.773,3.493c-0.056-0.245-0.085-0.5-0.085-0.762 c0-1.846, 1.471-3.343, 3.286-3.343c 0.945,0, 1.799,0.406, 2.398,1.056c 0.748-0.15, 1.452-0.428, 2.087-0.811 c-0.245,0.781-0.766,1.436-1.445,1.85c 0.665-0.081, 1.298-0.261, 1.887-0.526C 17.567,5.616, 17.010,6.205, 16.368,6.676 z"></path></g></svg>