<?xml version="1.0" encoding="utf-8"?> <!-- Generator: IcoMoon.io --> <!DOCTYPE svg PUBLIC "-//W3C//DTD SVG 1.1//EN" "http://www.w3.org/Graphics/SVG/1.1/DTD/svg11.dtd"> <svg width="20" height="20" viewBox="0 0 20 20" xmlns="http://www.w3.org/2000/svg" xmlns:xlink="http://www.w3.org/1999/xlink" fill="#141414"><g><path d="M 10,0C 4.477,0,0,4.477,0,10s 4.477,10, 10,10s 10-4.477, 10-10S 15.523,0, 10,0z M 15.747,7.053 c 0.006,0.127, 0.009,0.255, 0.009,0.384c0,3.918-2.983,8.437-8.437,8.437c-1.675,0-3.233-0.491-4.545-1.332 c 0.232,0.027, 0.468,0.042, 0.707,0.042c 1.389,0, 2.668-0.474, 3.683-1.269c-1.298-0.024-2.393-0.881-2.77-2.059 c 0.181,0.035, 0.367,0.053, 0.558,0.053c 0.27,0, 0.532-0.036, 0.781-0.104c-1.356-0.273-2.379-1.471-2.379-2.908 c0-0.013,0-0.025, 0-0.037c 0.4,0.222, 0.857,0.355, 1.343,0.371c-0.796-0.532-1.319-1.439-1.319-2.468 c0-0.543, 0.146-1.053, 0.401-1.491c 1.462,1.794, 3.647,2.974, 6.112,3.098c-0.051-0.217-0.077-0.443-0.077-0.676 c0-1.638, 1.328-2.965, 2.965-2.965c 0.853,0, 1.624,0.36, 2.164,0.936c 0.675-0.133, 1.31-0.38, 1.883-0.72 c-0.221,0.692-0.692,1.274-1.304,1.641c 0.6-0.072, 1.171-0.231, 1.703-0.467 C 16.829,6.112, 16.326,6.634, 15.747,7.053z"></path></g></svg>