<?xml version="1.0" encoding="utf-8"?> <!-- Generator: IcoMoon.io --> <!DOCTYPE svg PUBLIC "-//W3C//DTD SVG 1.1//EN" "http://www.w3.org/Graphics/SVG/1.1/DTD/svg11.dtd"> <svg width="20" height="20" viewBox="0 0 20 20" xmlns="http://www.w3.org/2000/svg" xmlns:xlink="http://www.w3.org/1999/xlink" fill="#141414"><g><path d="M 16.667,0L 3.334,0 C 1.5,0,0,1.5,0,3.334l0,13.332 C0,18.501, 1.5,20, 3.334,20l 13.333,0 C 18.5,20, 20,18.501, 20,16.666L 20,3.334 C 20,1.5, 18.5,0, 16.667,0z M 6.089,13.023l-2.173,0 c-0.131,0-0.229-0.059-0.284-0.148c-0.057-0.093-0.060-0.213,0-0.333l 2.309-4.075c 0.002-0.004, 0.002-0.007,0-0.012l-1.469-2.544 c-0.061-0.121-0.070-0.241-0.012-0.333c 0.055-0.090, 0.165-0.136, 0.296-0.136l 2.173,0 c 0.333,0, 0.497,0.215, 0.605,0.407 c0,0, 1.485,2.591, 1.494,2.605c-0.088,0.155-2.346,4.149-2.346,4.149C 6.571,12.804, 6.414,13.023, 6.089,13.023z M 16.365,2.94L 11.554,11.448c-0.003,0.004-0.003,0.010,0,0.014l 3.064,5.597c 0.061,0.12, 0.062,0.243, 0.004,0.336 c-0.055,0.089-0.158,0.139-0.288,0.139l-2.171,0 c-0.333,0-0.499-0.221-0.607-0.414c0,0-3.080-5.65-3.088-5.665 c 0.154-0.273, 4.836-8.575, 4.836-8.575c 0.117-0.209, 0.257-0.414, 0.582-0.414l 2.195,0 c 0.131,0, 0.234,0.049, 0.289,0.139 C 16.427,2.698, 16.426,2.82, 16.365,2.94z"></path></g></svg>