<?xml version="1.0" encoding="utf-8"?> <!-- Generator: IcoMoon.io --> <!DOCTYPE svg PUBLIC "-//W3C//DTD SVG 1.1//EN" "http://www.w3.org/Graphics/SVG/1.1/DTD/svg11.dtd"> <svg width="20" height="20" viewBox="0 0 20 20" xmlns="http://www.w3.org/2000/svg" xmlns:xlink="http://www.w3.org/1999/xlink" fill="#141414"><g><path d="M 10,0C 4.477,0,0,4.477,0,10s 4.477,10, 10,10s 10-4.477, 10-10S 15.523,0, 10,0z M 6.748,12.508l-1.807,0 c-0.109,0-0.19-0.049-0.236-0.123c-0.048-0.077-0.050-0.177,0-0.277l 1.92-3.38c 0.002-0.004, 0.002-0.006,0-0.010l-1.222-2.11 c-0.051-0.1-0.058-0.199-0.010-0.277c 0.046-0.075, 0.138-0.113, 0.246-0.113l 1.807,0 c 0.277,0, 0.413,0.178, 0.503,0.338 c0,0, 1.235,2.149, 1.243,2.161c-0.073,0.129-1.951,3.442-1.951,3.442C 7.148,12.326, 7.018,12.508, 6.748,12.508z M 15.294,4.143L 11.292,11.201c-0.002,0.004-0.002,0.008,0,0.012l 2.548,4.644c 0.051,0.1, 0.052,0.202, 0.004,0.279 c-0.046,0.074-0.131,0.115-0.24,0.115l-1.805,0 c-0.277,0-0.415-0.184-0.505-0.343c0,0-2.562-4.687-2.568-4.699 c 0.128-0.226, 4.022-7.114, 4.022-7.114c 0.097-0.174, 0.214-0.343, 0.484-0.343l 1.826,0 c 0.109,0, 0.194,0.041, 0.24,0.115 C 15.345,3.942, 15.344,4.044, 15.294,4.143z"></path></g></svg>