<?xml version="1.0" encoding="utf-8"?> <!-- Generator: IcoMoon.io --> <!DOCTYPE svg PUBLIC "-//W3C//DTD SVG 1.1//EN" "http://www.w3.org/Graphics/SVG/1.1/DTD/svg11.dtd"> <svg width="20" height="20" viewBox="0 0 20 20" xmlns="http://www.w3.org/2000/svg" xmlns:xlink="http://www.w3.org/1999/xlink" fill="#141414"><g><path d="M 16.563,12.5l-0.29-8.125C 16.26,4.031, 16.531,3.75, 16.875,3.75l 2.5,0 c 0.344,0, 0.576,0.277, 0.515,0.615L 18.438,12.5M 18.75,15.156c0,0.602-0.492,1.094-1.094,1.094l-0.313,0 c-0.602,0-1.094-0.492-1.094-1.094l0-0.313 c0-0.602, 0.492-1.094, 1.094-1.094l 0.313,0 c 0.602,0, 1.094,0.492, 1.094,1.094L 18.75,15.156 zM 7.5,3.75C 3.358,3.75,0,6.548,0,10c0,3.452, 3.358,6.25, 7.5,6.25c 4.142,0, 7.5-2.798, 7.5-6.25 C 15,6.548, 11.642,3.75, 7.5,3.75z M 12.5,8.75l-1.45,0 L 8.75,11.050L 8.75,12.5 l 1.875,0 l0,1.25 L 5.625,13.75 l0-1.25 l 1.875,0 l0-1.45 L 3.95,7.5L 3.129,7.5 l0-1.25 l 3.742,0 l0,1.25 L 6.050,7.5 L 8.125,9.575l 0.625-0.625L 8.75,7.5 l 3.75,0 L 12.5,8.75 z"></path></g></svg>