<?xml version="1.0" encoding="utf-8"?> <!-- Generator: IcoMoon.io --> <!DOCTYPE svg PUBLIC "-//W3C//DTD SVG 1.1//EN" "http://www.w3.org/Graphics/SVG/1.1/DTD/svg11.dtd"> <svg width="20" height="20.188047409057617" viewBox="0 0 20 20.188047409057617" xmlns="http://www.w3.org/2000/svg" xmlns:xlink="http://www.w3.org/1999/xlink" fill="#141414"><g><path d="M 11.892,12.763c-0.338,0.34-0.052,0.96-0.052,0.96l 2.541,4.243c0,0, 0.417,0.559, 0.779,0.559 c 0.363,0, 0.722-0.298, 0.722-0.298l 2.009-2.871c0,0, 0.202-0.362, 0.207-0.68c 0.007-0.451-0.673-0.575-0.673-0.575 l-4.756-1.527C 12.668,12.573, 12.202,12.45, 11.892,12.763zM 11.651,10.625c 0.243,0.413, 0.915,0.292, 0.915,0.292l 4.745-1.387c0,0, 0.647-0.263, 0.739-0.614 c 0.091-0.351-0.107-0.774-0.107-0.774l-2.268-2.671c0,0-0.197-0.338-0.604-0.372c-0.45-0.038-0.726,0.506-0.726,0.506 l-2.681,4.219C 11.664,9.825, 11.427,10.245, 11.651,10.625zM 9.409,8.98c 0.559-0.138, 0.647-0.949, 0.647-0.949l-0.038-6.755c0,0-0.084-0.833-0.459-1.059 c-0.587-0.356-0.761-0.17-0.93-0.145L 4.691,1.534c0,0-0.386,0.128-0.587,0.45c-0.287,0.456, 0.292,1.124, 0.292,1.124 L 8.49,8.689C 8.49,8.689, 8.895,9.107, 9.409,8.98zM 8.436,11.714c 0.014-0.521-0.626-0.834-0.626-0.834L 3.577,8.741c0,0-0.627-0.259-0.932-0.078 c-0.233,0.138-0.44,0.388-0.46,0.608l-0.276,3.395c0,0-0.041,0.588, 0.111,0.856c 0.216,0.38, 0.926,0.115, 0.926,0.115 l 4.943-1.093C 8.081,12.414, 8.418,12.403, 8.436,11.714zM 9.666,13.546c-0.424-0.218-0.932,0.233-0.932,0.233l-3.31,3.644c0,0-0.413,0.557-0.308,0.899 c 0.099,0.321, 0.263,0.48, 0.494,0.592l 3.324,1.049c0,0, 0.403,0.084, 0.708-0.005c 0.433-0.126, 0.353-0.804, 0.353-0.804 l 0.075-4.934C 10.071,14.222, 10.054,13.747, 9.666,13.546z"></path></g></svg>